<svg xmlns="http://www.w3.org/2000/svg" xmlns:xlink="http://www.w3.org/1999/xlink" width="500" zoomAndPan="magnify" viewBox="0 0 375 374.999991" height="500" preserveAspectRatio="xMidYMid meet" version="1.0"><defs><clipPath id="id1"><path d="M 156.84375 136 L 218.574219 136 L 218.574219 239.6875 L 156.84375 239.6875 Z M 156.84375 136 " clip-rule="nonzero"/></clipPath><clipPath id="id2"><path d="M 185.441406 121.226562 L 189.785156 121.226562 L 189.785156 254.351562 L 185.441406 254.351562 Z M 185.441406 121.226562 " clip-rule="nonzero"/></clipPath></defs><path stroke-linecap="butt" transform="matrix(4.921259, 0, 0, 4.921259, -58.562987, -58.562991)" fill="none" stroke-linejoin="miter" d="M 65.600367 50.000004 C 65.600367 50.613573 65.594017 51.227142 65.581317 51.839917 C 65.568617 52.452692 65.549567 53.064673 65.524961 53.675861 C 65.499561 54.286254 65.468604 54.895061 65.431298 55.502279 C 65.393992 56.109498 65.350336 56.714336 65.300329 57.315998 C 65.250323 57.917661 65.194761 58.516148 65.132848 59.111461 C 65.070142 59.706774 65.002673 60.298117 64.928061 60.885492 C 64.854242 61.472867 64.774073 62.05548 64.688348 62.63333 C 64.601829 63.21118 64.510548 63.783474 64.412917 64.351005 C 64.314492 64.917743 64.211304 65.47813 64.10256 66.032962 C 63.993023 66.587793 63.877929 67.136274 63.758073 67.677612 C 63.637423 68.218949 63.51201 68.752349 63.380248 69.278606 C 63.249279 69.804862 63.112754 70.323974 62.970673 70.833562 C 62.829385 71.343943 62.681748 71.845593 62.530142 72.338512 C 62.377742 72.831431 62.220579 73.315618 62.058654 73.789487 C 61.896729 74.26415 61.730042 74.728494 61.558592 75.183312 C 61.387141 75.638131 61.211723 76.082631 61.030748 76.516812 C 60.850566 76.9502 60.665623 77.373269 60.47671 77.786019 C 60.287004 78.197975 60.094123 78.598819 59.896479 78.987756 C 59.698835 79.377488 59.498016 79.754519 59.293229 80.120438 C 59.087648 80.485563 58.878891 80.838782 58.66696 81.180094 C 58.454235 81.521407 58.239129 81.849225 58.020054 82.165138 C 57.800979 82.480257 57.578729 82.782675 57.354097 83.072394 C 57.128672 83.361319 56.900866 83.637544 56.669885 83.899482 C 56.438904 84.162213 56.205541 84.410657 55.969797 84.645607 C 55.734054 84.880557 55.495929 85.101219 55.255422 85.307594 C 55.014916 85.514763 54.772822 85.706851 54.528347 85.885444 C 54.283872 86.063244 54.03781 86.226757 53.79016 86.375982 C 53.54251 86.525207 53.294066 86.659351 53.043241 86.779207 C 52.79321 86.899063 52.541591 87.003838 52.289178 87.094326 C 52.036766 87.18402 51.782766 87.259426 51.528766 87.319751 C 51.274766 87.379282 51.020766 87.424526 50.765178 87.454688 C 50.510384 87.484851 50.255591 87.499932 50.000003 87.499932 C 49.744416 87.499932 49.489622 87.484851 49.234828 87.454688 C 48.97924 87.424526 48.72524 87.379282 48.47124 87.319751 C 48.21724 87.259426 47.96324 87.18402 47.710828 87.094326 C 47.458415 87.003838 47.206797 86.899063 46.956765 86.779207 C 46.70594 86.659351 46.457497 86.525207 46.209846 86.375982 C 45.962196 86.226757 45.716134 86.063244 45.471659 85.885444 C 45.227184 85.706851 44.98509 85.514763 44.744584 85.307594 C 44.504078 85.101219 44.265953 84.880557 44.030209 84.645607 C 43.794465 84.410657 43.561103 84.162213 43.330121 83.899482 C 43.09914 83.637544 42.871334 83.361319 42.645909 83.072394 C 42.421277 82.782675 42.199027 82.480257 41.979952 82.165138 C 41.760877 81.849225 41.545771 81.521407 41.333046 81.180094 C 41.121115 80.838782 40.912359 80.485563 40.706777 80.120438 C 40.50199 79.754519 40.301171 79.377488 40.103527 78.987756 C 39.905883 78.598819 39.713002 78.197975 39.523296 77.786019 C 39.334383 77.373269 39.14944 76.9502 38.969258 76.516812 C 38.788283 76.082631 38.612865 75.638131 38.441415 75.183312 C 38.269965 74.728494 38.103277 74.26415 37.941352 73.789487 C 37.779427 73.315618 37.622265 72.831431 37.469865 72.338512 C 37.318258 71.845593 37.170621 71.343943 37.029333 70.833562 C 36.887252 70.323974 36.750727 69.804862 36.619758 69.278606 C 36.487996 68.752349 36.362583 68.218949 36.241933 67.677612 C 36.121283 67.136274 36.006983 66.587793 35.897446 66.032962 C 35.788702 65.47813 35.685514 64.917743 35.587089 64.351005 C 35.489458 63.783474 35.398177 63.21118 35.311658 62.63333 C 35.225933 62.05548 35.145764 61.472867 35.071946 60.885492 C 34.997333 60.298117 34.929864 59.706774 34.867158 59.111461 C 34.805246 58.516148 34.749683 57.917661 34.699677 57.315998 C 34.649671 56.714336 34.606014 56.109498 34.568708 55.502279 C 34.531402 54.895061 34.500446 54.286254 34.475046 53.675861 C 34.450439 53.064673 34.431389 52.452692 34.418689 51.839917 C 34.405989 51.227142 34.399639 50.613573 34.399639 50.000004 C 34.399639 49.386435 34.405989 48.772866 34.418689 48.160091 C 34.431389 47.547316 34.450439 46.935335 34.475046 46.324147 C 34.500446 45.713754 34.531402 45.104947 34.568708 44.497729 C 34.606014 43.89051 34.649671 43.285672 34.699677 42.68401 C 34.749683 42.082347 34.805246 41.48386 34.867158 40.888547 C 34.929864 40.293234 34.997333 39.701891 35.071946 39.114516 C 35.145764 38.527141 35.225933 37.944528 35.311658 37.366678 C 35.398177 36.788828 35.489458 36.216534 35.587089 35.649003 C 35.685514 35.082265 35.788702 34.521084 35.897446 33.967046 C 36.006983 33.412215 36.121283 32.863734 36.241933 32.322396 C 36.362583 31.781059 36.487996 31.247659 36.619758 30.721402 C 36.750727 30.194352 36.887252 29.676034 37.029333 29.166446 C 37.170621 28.656065 37.318258 28.154415 37.469865 27.661496 C 37.622265 27.168577 37.779427 26.68439 37.941352 26.210521 C 38.103277 25.735858 38.269965 25.271514 38.441415 24.816696 C 38.612865 24.361877 38.788283 23.917377 38.969258 23.483196 C 39.14944 23.049808 39.334383 22.626739 39.523296 22.213989 C 39.713002 21.802033 39.905883 21.401189 40.103527 21.012252 C 40.301171 20.62252 40.50199 20.245489 40.706777 19.87957 C 40.912359 19.514445 41.121115 19.161226 41.333046 18.819914 C 41.545771 18.478601 41.760877 18.150783 41.979952 17.83487 C 42.199027 17.519751 42.421277 17.217333 42.645909 16.927614 C 42.871334 16.638689 43.09914 16.362464 43.330121 16.100526 C 43.561103 15.837795 43.794465 15.589351 44.030209 15.354401 C 44.265953 15.119451 44.504078 14.898789 44.744584 14.692414 C 44.98509 14.485245 45.227184 14.293157 45.471659 14.114564 C 45.716134 13.936763 45.962196 13.773251 46.209846 13.624026 C 46.457497 13.474801 46.70594 13.340657 46.956765 13.220801 C 47.206797 13.100945 47.458415 12.99617 47.710828 12.905682 C 47.96324 12.815988 48.21724 12.740582 48.47124 12.680257 C 48.72524 12.620726 48.97924 12.575482 49.234828 12.54532 C 49.489622 12.515157 49.744416 12.500076 50.000003 12.500076 C 50.255591 12.500076 50.510384 12.515157 50.765178 12.54532 C 51.020766 12.575482 51.274766 12.620726 51.528766 12.680257 C 51.782766 12.740582 52.036766 12.815988 52.289178 12.905682 C 52.541591 12.99617 52.79321 13.100945 53.043241 13.220801 C 53.294066 13.340657 53.54251 13.474801 53.79016 13.624026 C 54.03781 13.773251 54.283872 13.936763 54.528347 14.114564 C 54.772822 14.293157 55.014916 14.485245 55.255422 14.692414 C 55.495929 14.898789 55.734054 15.119451 55.969797 15.354401 C 56.205541 15.589351 56.438904 15.837795 56.669885 16.100526 C 56.900866 16.362464 57.128672 16.638689 57.354097 16.927614 C 57.578729 17.217333 57.800979 17.519751 58.020054 17.83487 C 58.239129 18.150783 58.454235 18.478601 58.66696 18.819914 C 58.878891 19.161226 59.087648 19.514445 59.293229 19.87957 C 59.498016 20.245489 59.698835 20.62252 59.896479 21.012252 C 60.094123 21.401189 60.287004 21.802033 60.47671 22.213989 C 60.665623 22.626739 60.850566 23.049808 61.030748 23.483196 C 61.211723 23.917377 61.387141 24.361877 61.558592 24.816696 C 61.730042 25.271514 61.896729 25.735858 62.058654 26.210521 C 62.220579 26.68439 62.377742 27.168577 62.530142 27.661496 C 62.681748 28.154415 62.829385 28.656065 62.970673 29.166446 C 63.112754 29.676034 63.249279 30.194352 63.380248 30.721402 C 63.51201 31.247659 63.637423 31.781059 63.758073 32.322396 C 63.877929 32.863734 63.993023 33.412215 64.10256 33.967046 C 64.211304 34.521084 64.314492 35.082265 64.412917 35.649003 C 64.510548 36.216534 64.601829 36.788828 64.688348 37.366678 C 64.774073 37.944528 64.854242 38.527141 64.928061 39.114516 C 65.002673 39.701891 65.070142 40.293234 65.132848 40.888547 C 65.194761 41.48386 65.250323 42.082347 65.300329 42.68401 C 65.350336 43.285672 65.393992 43.89051 65.431298 44.497729 C 65.468604 45.104947 65.499561 45.713754 65.524961 46.324147 C 65.549567 46.935335 65.568617 47.547316 65.581317 48.160091 C 65.594017 48.772866 65.600367 49.386435 65.600367 50.000004 Z M 65.600367 50.000004 " stroke="#424039" stroke-width="0.801" stroke-opacity="1" stroke-miterlimit="10"/><path stroke-linecap="butt" transform="matrix(4.921259, 0, 0, 4.921259, -58.562987, -58.562991)" fill="none" stroke-linejoin="miter" d="M 87.499931 50.000004 C 87.499931 50.255591 87.48485 50.510385 87.454687 50.765179 C 87.424525 51.020767 87.379281 51.274767 87.31975 51.528767 C 87.259425 51.782767 87.184019 52.036767 87.094325 52.289179 C 87.003837 52.541592 86.899062 52.79321 86.779206 53.043242 C 86.65935 53.294067 86.525206 53.542511 86.375981 53.790161 C 86.226756 54.037811 86.063244 54.283873 85.885444 54.528348 C 85.70685 54.772823 85.514762 55.014917 85.307593 55.255423 C 85.101218 55.495929 84.880556 55.734054 84.645606 55.969798 C 84.410656 56.205542 84.162212 56.438904 83.899481 56.669886 C 83.637543 56.900867 83.361318 57.128673 83.072393 57.354098 C 82.782675 57.57873 82.480256 57.80098 82.165137 58.020055 C 81.849224 58.23913 81.521406 58.454236 81.180093 58.666961 C 80.838781 58.878892 80.485562 59.087648 80.120437 59.29323 C 79.754518 59.498017 79.377487 59.698836 78.987755 59.89648 C 78.598818 60.094124 78.197974 60.287005 77.786018 60.476711 C 77.373268 60.665624 76.950199 60.850567 76.516811 61.030749 C 76.08263 61.211724 75.63813 61.387142 75.183311 61.558592 C 74.728493 61.730042 74.264149 61.89673 73.789486 62.058655 C 73.315617 62.22058 72.83143 62.377742 72.338511 62.530142 C 71.845592 62.681749 71.343942 62.829386 70.833561 62.970674 C 70.323973 63.112755 69.804861 63.24928 69.278605 63.380249 C 68.752348 63.512011 68.218948 63.637424 67.677611 63.758074 C 67.136273 63.87793 66.587792 63.993024 66.032961 64.102561 C 65.478129 64.211305 64.917742 64.314493 64.351004 64.412918 C 63.783473 64.510549 63.211179 64.60183 62.633329 64.688349 C 62.055479 64.774074 61.472866 64.854243 60.885491 64.928061 C 60.298116 65.002674 59.706773 65.070143 59.11146 65.132849 C 58.516148 65.194761 57.91766 65.250324 57.315997 65.30033 C 56.714335 65.350336 56.109497 65.393993 55.502279 65.431299 C 54.89506 65.468605 54.286253 65.499561 53.67586 65.524961 C 53.064672 65.549568 52.452691 65.568618 51.839916 65.581318 C 51.227141 65.594018 50.613572 65.600368 50.000003 65.600368 C 49.386434 65.600368 48.772865 65.594018 48.16009 65.581318 C 47.547315 65.568618 46.935334 65.549568 46.324146 65.524961 C 45.713753 65.499561 45.104946 65.468605 44.497728 65.431299 C 43.890509 65.393993 43.285671 65.350336 42.684009 65.30033 C 42.082346 65.250324 41.483859 65.194761 40.888546 65.132849 C 40.293234 65.070143 39.70189 65.002674 39.114515 64.928061 C 38.52714 64.854243 37.944527 64.774074 37.366677 64.688349 C 36.788827 64.60183 36.216533 64.510549 35.649002 64.412918 C 35.082264 64.314493 34.521083 64.211305 33.967045 64.102561 C 33.412214 63.993024 32.863733 63.87793 32.322395 63.758074 C 31.781058 63.637424 31.247658 63.512011 30.721401 63.380249 C 30.194351 63.24928 29.676033 63.112755 29.166445 62.970674 C 28.656064 62.829386 28.154414 62.681749 27.661495 62.530142 C 27.168576 62.377742 26.684389 62.22058 26.21052 62.058655 C 25.735857 61.89673 25.271514 61.730042 24.816695 61.558592 C 24.361876 61.387142 23.917376 61.211724 23.483195 61.030749 C 23.049807 60.850567 22.626738 60.665624 22.213988 60.476711 C 21.802032 60.287005 21.401188 60.094124 21.012251 59.89648 C 20.622519 59.698836 20.245488 59.498017 19.879569 59.29323 C 19.514444 59.087648 19.161226 58.878892 18.819913 58.666961 C 18.4786 58.454236 18.150782 58.23913 17.834869 58.020055 C 17.51975 57.80098 17.217332 57.57873 16.927613 57.354098 C 16.638688 57.128673 16.362463 56.900867 16.100525 56.669886 C 15.837794 56.438904 15.58935 56.205542 15.3544 55.969798 C 15.11945 55.734054 14.898788 55.495929 14.692413 55.255423 C 14.485244 55.014917 14.293156 54.772823 14.114563 54.528348 C 13.936763 54.283873 13.77325 54.037811 13.624025 53.790161 C 13.4748 53.542511 13.340656 53.294067 13.2208 53.043242 C 13.100944 52.79321 12.996169 52.541592 12.905681 52.289179 C 12.815987 52.036767 12.740581 51.782767 12.680256 51.528767 C 12.620725 51.274767 12.575481 51.020767 12.545319 50.765179 C 12.515156 50.510385 12.500075 50.255591 12.500075 50.000004 C 12.500075 49.744416 12.515156 49.489623 12.545319 49.234829 C 12.575481 48.979241 12.620725 48.725241 12.680256 48.471241 C 12.740581 48.217241 12.815987 47.963241 12.905681 47.710829 C 12.996169 47.458416 13.100944 47.206797 13.2208 46.956766 C 13.340656 46.705941 13.4748 46.457497 13.624025 46.209847 C 13.77325 45.962197 13.936763 45.716135 14.114563 45.47166 C 14.293156 45.227185 14.485244 44.985091 14.692413 44.744585 C 14.898788 44.504079 15.11945 44.265953 15.3544 44.03021 C 15.58935 43.794466 15.837794 43.561103 16.100525 43.330122 C 16.362463 43.099141 16.638688 42.871335 16.927613 42.64591 C 17.217332 42.421278 17.51975 42.199028 17.834869 41.979953 C 18.150782 41.760878 18.4786 41.545772 18.819913 41.333047 C 19.161226 41.121116 19.514444 40.912359 19.879569 40.706778 C 20.245488 40.501991 20.622519 40.301172 21.012251 40.103528 C 21.401188 39.905884 21.802032 39.713003 22.213988 39.523297 C 22.626738 39.334384 23.049807 39.149441 23.483195 38.969259 C 23.917376 38.788284 24.361876 38.612866 24.816695 38.441416 C 25.271514 38.269965 25.735857 38.103278 26.21052 37.941353 C 26.684389 37.779428 27.168576 37.622265 27.661495 37.469865 C 28.154414 37.318259 28.656064 37.170622 29.166445 37.029334 C 29.676033 36.887253 30.194351 36.750728 30.721401 36.619759 C 31.247658 36.487997 31.781058 36.362584 32.322395 36.241934 C 32.863733 36.121284 33.412214 36.006984 33.967045 35.897447 C 34.521083 35.788703 35.082264 35.685515 35.649002 35.58709 C 36.216533 35.489459 36.788827 35.398178 37.366677 35.311659 C 37.944527 35.225934 38.52714 35.145765 39.114515 35.071946 C 39.70189 34.997334 40.293234 34.929865 40.888546 34.867159 C 41.483859 34.805246 42.082346 34.749684 42.684009 34.699678 C 43.285671 34.649671 43.890509 34.606015 44.497728 34.568709 C 45.104946 34.531403 45.713753 34.500446 46.324146 34.475046 C 46.935334 34.45044 47.547315 34.43139 48.16009 34.41869 C 48.772865 34.40599 49.386434 34.39964 50.000003 34.39964 C 50.613572 34.39964 51.227141 34.40599 51.839916 34.41869 C 52.452691 34.43139 53.064672 34.45044 53.67586 34.475046 C 54.286253 34.500446 54.89506 34.531403 55.502279 34.568709 C 56.109497 34.606015 56.714335 34.649671 57.315997 34.699678 C 57.91766 34.749684 58.516148 34.805246 59.11146 34.867159 C 59.706773 34.929865 60.298116 34.997334 60.885491 35.071946 C 61.472866 35.145765 62.055479 35.225934 62.633329 35.311659 C 63.211179 35.398178 63.783473 35.489459 64.351004 35.58709 C 64.917742 35.685515 65.478129 35.788703 66.032961 35.897447 C 66.587792 36.006984 67.136273 36.122078 67.677611 36.241934 C 68.218948 36.362584 68.752348 36.487997 69.278605 36.619759 C 69.804861 36.750728 70.323973 36.887253 70.833561 37.029334 C 71.343942 37.170622 71.845592 37.318259 72.338511 37.469865 C 72.83143 37.622265 73.315617 37.779428 73.789486 37.941353 C 74.264149 38.103278 74.728493 38.269965 75.183311 38.441416 C 75.63813 38.612866 76.08263 38.788284 76.516811 38.969259 C 76.950199 39.149441 77.373268 39.334384 77.786018 39.523297 C 78.197974 39.713003 78.598818 39.905884 78.987755 40.103528 C 79.377487 40.301172 79.754518 40.501991 80.120437 40.706778 C 80.485562 40.912359 80.838781 41.121116 81.180093 41.333047 C 81.521406 41.545772 81.849224 41.760878 82.165137 41.979953 C 82.480256 42.199028 82.782675 42.421278 83.072393 42.64591 C 83.361318 42.871335 83.637543 43.099141 83.899481 43.330122 C 84.162212 43.561103 84.410656 43.794466 84.645606 44.03021 C 84.880556 44.265953 85.101218 44.504079 85.307593 44.744585 C 85.514762 44.985091 85.70685 45.227185 85.885444 45.47166 C 86.063244 45.716135 86.226756 45.962197 86.375981 46.209847 C 86.525206 46.457497 86.65935 46.705941 86.779206 46.956766 C 86.899062 47.206797 87.003837 47.458416 87.094325 47.710829 C 87.184019 47.963241 87.259425 48.217241 87.31975 48.471241 C 87.379281 48.725241 87.424525 48.979241 87.454687 49.234829 C 87.48485 49.489623 87.499931 49.744416 87.499931 50.000004 Z M 87.499931 50.000004 " stroke="#424039" stroke-width="0.801" stroke-opacity="1" stroke-miterlimit="10"/><path stroke-linecap="butt" transform="matrix(3.479795, -3.479917, 3.479917, 3.479795, -160.487051, 187.502594)" fill="none" stroke-linejoin="miter" d="M 87.500138 50.000238 C 87.500134 50.255053 87.484975 50.510428 87.454662 50.765243 C 87.424911 51.020618 87.379444 51.274871 87.319384 51.529123 C 87.259324 51.783376 87.18411 52.035944 87.093742 52.289074 C 87.003935 52.541642 86.899535 52.793087 86.77942 53.04341 C 86.659304 53.293732 86.525719 53.542932 86.375856 53.790448 C 86.227116 54.037963 86.063223 54.283795 85.885297 54.527943 C 85.70681 54.772652 85.514853 55.015115 85.308303 55.255333 C 85.101191 55.496113 84.880048 55.734086 84.645435 55.969814 C 84.410822 56.205541 84.161616 56.439024 83.8995 56.669699 C 83.637385 56.900375 83.361238 57.128244 83.071621 57.353868 C 82.782565 57.578931 82.4806 57.801187 82.165165 58.020075 C 81.849729 58.238963 81.520824 58.454484 81.180132 58.667198 C 80.838878 58.87935 80.485838 59.087574 80.119889 59.292991 C 79.754501 59.497847 79.377327 59.698773 78.987805 59.896332 C 78.598283 60.093891 78.197536 60.28696 77.785563 60.47666 C 77.373591 60.665238 76.950393 60.850449 76.516531 61.030608 C 76.082108 61.211328 75.638143 61.386996 75.183515 61.558736 C 74.728886 61.730475 74.264155 61.896602 73.789883 62.0588 C 73.31561 62.220997 72.831796 62.378143 72.33844 62.530238 C 71.845646 62.681771 71.343872 62.828814 70.833679 62.970805 C 70.323485 63.112797 69.805434 63.249175 69.278964 63.380502 C 68.752495 63.51183 68.218167 63.637544 67.677666 63.758207 C 67.136603 63.878308 66.588244 63.993358 66.033712 64.102234 C 65.478618 64.211671 64.91735 64.314934 64.350469 64.412585 C 63.783589 64.510235 63.211096 64.602273 62.633552 64.688137 C 62.055446 64.774561 61.472851 64.854251 60.885765 64.928328 C 60.29868 65.002405 59.707104 65.070869 59.112161 65.132598 C 58.516095 65.194327 57.917785 65.250443 57.315545 65.300385 C 56.713867 65.349766 56.109383 65.394095 55.502093 65.431128 C 54.895363 65.468723 54.286389 65.499582 53.67517 65.524828 C 53.065073 65.550074 52.452732 65.568585 51.839829 65.580923 C 51.227488 65.593821 50.614024 65.599984 49.999999 65.599974 C 49.385974 65.599963 48.77251 65.593778 48.159608 65.58142 C 47.547267 65.5685 46.934926 65.549968 46.324269 65.525261 C 45.713612 65.499432 45.104639 65.468552 44.497911 65.430937 C 43.890622 65.393883 43.285578 65.350093 42.684462 65.30013 C 42.082225 65.250167 41.483355 65.194591 40.888414 65.132841 C 40.292912 65.070531 39.7019 65.002607 39.114256 64.927948 C 38.527173 64.853851 37.94458 64.774141 37.366477 64.687696 C 36.788936 64.601812 36.216446 64.509755 35.649008 64.412646 C 35.082131 64.314976 34.521428 64.211132 33.966899 64.102236 C 33.411809 63.99278 32.864015 63.878272 32.322957 63.758152 C 31.781337 63.63747 31.247576 63.512298 30.72111 63.380953 C 30.194645 63.249608 29.676038 63.11265 29.165849 62.97064 C 28.656222 62.829192 28.154453 62.682132 27.661103 62.53002 C 27.168314 62.37847 26.684505 62.221307 26.210238 62.059093 C 25.735971 61.896879 25.271246 61.730736 24.816623 61.558981 C 24.362001 61.387225 23.917481 61.21098 23.483626 61.030806 C 23.04977 60.850632 22.626579 60.665407 22.214052 60.476253 C 21.802647 60.287099 21.401345 60.093455 21.012391 59.896444 C 20.622876 59.698872 20.245709 59.497932 19.879767 59.292502 C 19.514386 59.087634 19.160792 58.878837 18.820108 58.667233 C 18.478861 58.455069 18.150525 58.238976 17.835097 58.020077 C 17.519669 57.801177 17.217712 57.578911 16.927541 57.353838 C 16.638493 57.128765 16.362916 56.900325 16.100247 56.670201 C 15.837579 56.438955 15.589503 56.205464 15.354898 55.969728 C 15.11917 55.733993 14.899158 55.496012 14.692055 55.255225 C 14.485514 55.015 14.293004 54.773091 14.114525 54.528376 C 13.936608 54.284222 13.772723 54.038384 13.623992 53.790864 C 13.474699 53.542781 13.34 53.293577 13.220454 53.043811 C 13.100909 52.792923 12.995957 52.542036 12.905597 52.288903 C 12.815799 52.036332 12.741155 51.7832 12.680543 51.529506 C 12.620492 51.275252 12.575595 51.020436 12.545291 50.765621 C 12.514987 50.510806 12.499837 50.255429 12.500403 50.000053 C 12.499846 49.744677 12.515005 49.489301 12.545318 49.234487 C 12.57563 48.979673 12.620536 48.724859 12.680596 48.470606 C 12.741217 48.216915 12.81587 47.963785 12.905677 47.711217 C 12.996045 47.458088 13.101006 47.207204 13.22056 46.95632 C 13.340114 46.706559 13.474823 46.457359 13.624124 46.209282 C 13.772863 45.961766 13.936757 45.715935 14.114683 45.471787 C 14.29317 45.227078 14.485127 44.984614 14.691677 44.744396 C 14.89935 44.504178 15.11937 44.266205 15.354545 44.029916 C 15.589158 43.794188 15.837803 43.561267 16.10048 43.33003 C 16.362595 43.099355 16.638742 42.871485 16.927798 42.646423 C 17.217415 42.420799 17.519941 42.199104 17.835376 41.980216 C 18.150812 41.761328 18.479156 41.545246 18.82041 41.333093 C 19.160541 41.120941 19.514142 40.912156 19.87953 40.7073 C 20.245479 40.501883 20.622653 40.300956 21.012175 40.103398 C 21.401697 39.905839 21.802444 39.71277 22.213856 39.523631 C 22.626389 39.334491 23.049587 39.149281 23.483449 38.969122 C 23.917311 38.788963 24.361837 38.612733 24.816465 38.440994 C 25.271655 38.269816 25.735825 38.103128 26.210097 37.94093 C 26.684931 37.779294 27.168745 37.622148 27.660978 37.470053 C 28.154334 37.317959 28.656108 37.170916 29.166301 37.028924 C 29.676495 36.886933 30.194546 36.750554 30.721016 36.619227 C 31.247485 36.4879 31.781252 36.362747 32.322875 36.242084 C 32.863938 36.121983 33.412297 36.006933 33.96683 35.898057 C 34.521924 35.78862 35.082069 35.685356 35.649511 35.587145 C 36.216391 35.489494 36.788884 35.397457 37.366428 35.311593 C 37.944534 35.226291 38.527129 35.145479 39.114215 35.071402 C 39.701862 34.997886 40.292876 34.929983 40.88838 34.867693 C 41.483885 34.805403 42.082195 34.749287 42.683873 34.699906 C 43.286113 34.649964 43.890597 34.606757 44.497887 34.568601 C 45.104617 34.531007 45.713591 34.500148 46.324249 34.475463 C 46.935468 34.450217 47.547248 34.431144 48.160151 34.418807 C 48.773054 34.40647 49.386517 34.400307 49.999981 34.399756 C 50.614006 34.399767 51.226909 34.406513 51.839811 34.418871 C 52.452713 34.43123 53.065054 34.449762 53.675711 34.475591 C 54.286368 34.500297 54.895341 34.531178 55.502069 34.568793 C 56.10992 34.606408 56.713841 34.650198 57.315518 34.6996 C 57.917755 34.749563 58.516625 34.805139 59.112127 34.867449 C 59.707068 34.929199 60.298641 34.997684 60.885724 35.071781 C 61.472807 35.145879 62.0554 35.225588 62.633503 35.312033 C 63.211044 35.397917 63.783534 35.489975 64.350411 35.587645 C 64.917288 35.685315 65.478552 35.788598 66.033081 35.897493 C 66.588171 36.00695 67.135965 36.121458 67.677584 36.242139 C 68.218643 36.36226 68.752404 36.488554 69.27887 36.619899 C 69.804774 36.750683 70.323942 36.88708 70.834131 37.029089 C 71.344319 37.171098 71.845527 37.317598 72.338877 37.469709 C 72.831666 37.622382 73.314913 37.778984 73.789742 37.940637 C 74.264009 38.102851 74.728734 38.270116 75.183357 38.440749 C 75.637979 38.612504 76.082499 38.78875 76.516354 38.968924 C 76.950771 39.149659 77.373401 39.334323 77.785928 39.523477 C 78.197894 39.713192 78.598635 39.906274 78.987589 40.103285 C 79.377104 40.300858 79.754832 40.502359 80.120213 40.707227 C 80.485594 40.912096 80.839188 41.120893 81.180434 41.333057 C 81.521118 41.545783 81.849455 41.760754 82.164883 41.979653 C 82.480311 42.198552 82.782829 42.42138 83.071877 42.646453 C 83.361487 42.870964 83.637064 43.099405 83.899172 43.330089 C 84.16184 43.561336 84.410477 43.794265 84.645082 44.030001 C 84.880248 44.266298 85.101383 44.504279 85.307925 44.744504 C 85.514466 44.98473 85.707538 45.2272 85.885455 45.471354 C 86.063372 45.715508 86.226696 45.961906 86.37655 46.209427 C 86.525281 46.456948 86.65998 46.706153 86.779526 46.957041 C 86.899071 47.206806 87.004023 47.458816 87.094383 47.710827 C 87.184181 47.963398 87.259386 48.217091 87.319437 48.471346 C 87.38005 48.725039 87.424946 48.979855 87.45525 49.23467 C 87.484993 49.490047 87.500143 49.7443 87.500138 50.000238 Z M 87.500138 50.000238 " stroke="#424039" stroke-width="0.801" stroke-opacity="1" stroke-miterlimit="10"/><path stroke-linecap="butt" transform="matrix(3.479795, -3.479917, 3.479917, 3.479795, -160.487051, 187.502594)" fill="none" stroke-linejoin="miter" d="M 65.600099 50.000417 C 65.600088 50.61332 65.593903 51.226784 65.580984 51.840247 C 65.568625 52.453149 65.549531 53.064929 65.524825 53.675586 C 65.500119 54.286243 65.468677 54.895777 65.431062 55.502505 C 65.393446 56.109233 65.350218 56.713716 65.300255 57.315954 C 65.250292 57.918191 65.194155 58.5165 65.132405 59.111441 C 65.070094 59.706943 65.002732 60.298516 64.928635 60.885599 C 64.853976 61.473243 64.774266 62.055836 64.688383 62.633377 C 64.601938 63.21148 64.510441 63.783408 64.41221 64.350847 C 64.31454 64.917724 64.211818 65.478427 64.102362 66.033517 C 63.993466 66.588046 63.878397 67.136401 63.758277 67.677459 C 63.637595 68.219079 63.511862 68.752279 63.380517 69.278744 C 63.249171 69.80521 63.112775 70.323256 62.971327 70.834005 C 62.829318 71.344194 62.682257 71.845963 62.529584 72.338752 C 62.378034 72.831541 62.220871 73.31535 62.058657 73.789617 C 61.897004 74.264445 61.7303 74.728609 61.558544 75.183231 C 61.38735 75.638415 61.211666 76.082374 61.030931 76.51679 C 60.850196 76.950084 60.665532 77.373837 60.476378 77.785242 C 60.287224 78.197769 60.094142 78.59851 59.896569 78.988025 C 59.698997 79.37754 59.498057 79.754707 59.293189 80.120088 C 59.087759 80.48603 58.879523 80.839063 58.666797 81.179747 C 58.454633 81.520993 58.23854 81.84933 58.01964 82.164758 C 57.800741 82.480186 57.579036 82.782704 57.353963 83.071752 C 57.128329 83.361362 56.90045 83.6375 56.669765 83.899608 C 56.43908 84.161715 56.205589 84.410913 55.969854 84.645518 C 55.734118 84.880123 55.496137 85.101258 55.255912 85.3078 C 55.015125 85.514902 54.772655 85.706851 54.528501 85.884768 C 54.283786 86.063247 54.037948 86.227132 53.790427 86.375863 C 53.542907 86.525717 53.293702 86.659294 53.043375 86.779401 C 52.793049 86.899507 52.5416 87.003898 52.289028 87.093696 C 52.036457 87.184617 51.783325 87.259261 51.52907 87.319312 C 51.274816 87.379363 51.020561 87.424821 50.765185 87.454564 C 50.510369 87.484868 50.254993 87.500017 50.000178 87.500013 C 49.744241 87.500009 49.489988 87.48485 49.234612 87.455098 C 48.979798 87.424786 48.724984 87.37988 48.471293 87.319259 C 48.21704 87.259199 47.963349 87.183985 47.710781 87.094178 C 47.458213 87.004371 47.206768 86.898848 46.957006 86.779294 C 46.706123 86.65974 46.456923 86.525032 46.209407 86.376292 C 45.961891 86.227553 45.71606 86.063659 45.471351 85.885172 C 45.227203 85.707246 44.985301 85.514728 44.744521 85.307616 C 44.504303 85.101066 44.265769 84.880485 44.030041 84.645871 C 43.794314 84.410135 43.560831 84.162052 43.330155 83.899936 C 43.098918 83.63726 42.871049 83.361113 42.645987 83.072057 C 42.420924 82.783001 42.199229 82.480475 41.97978 82.164478 C 41.760891 81.849043 41.545371 81.52126 41.333218 81.180006 C 41.120504 80.839314 40.912281 80.486274 40.706864 80.120325 C 40.502008 79.754938 40.30052 79.377202 40.103523 78.988241 C 39.905964 78.598719 39.712895 78.197972 39.523756 77.785438 C 39.334055 77.373465 39.149967 76.950268 38.968686 76.516406 C 38.788527 76.082544 38.612297 75.638018 38.441119 75.183951 C 38.269941 74.728761 38.102692 74.26403 37.940494 73.789757 C 37.779419 73.315485 37.622273 72.831671 37.469617 72.338877 C 37.318084 71.846082 37.171041 71.344308 37.029049 70.834115 C 36.887058 70.323921 36.750679 69.804748 36.619914 69.278839 C 36.488587 68.752369 36.362311 68.218603 36.242209 67.677541 C 36.121547 67.135917 36.007058 66.588119 35.897621 66.033025 C 35.788745 65.478492 35.68492 64.917786 35.58727 64.350906 C 35.48962 63.784025 35.398143 63.210971 35.31228 62.633427 C 35.225855 62.055321 35.146165 61.472726 35.072088 60.88564 C 34.998011 60.298554 34.929547 59.706979 34.867257 59.111475 C 34.805528 58.516531 34.749973 57.91766 34.69947 57.315982 C 34.650089 56.714304 34.606321 56.109258 34.568726 55.502529 C 34.531693 54.895238 34.500273 54.286825 34.475027 53.675606 C 34.450342 53.064948 34.431269 52.453168 34.418932 51.840265 C 34.406034 51.226801 34.39987 50.613337 34.399881 50.000435 C 34.399892 49.38641 34.406076 48.772946 34.418435 48.160044 C 34.431355 47.54658 34.449887 46.935362 34.475155 46.324144 C 34.499861 45.713487 34.531303 45.105075 34.568918 44.497224 C 34.606534 43.890496 34.649762 43.286014 34.699725 42.683776 C 34.749127 42.0821 34.805264 41.483791 34.867575 40.888289 C 34.929885 40.292787 34.997809 39.701775 35.071906 39.114692 C 35.145442 38.527048 35.226275 37.944455 35.312159 37.366914 C 35.397481 36.788811 35.489539 36.216321 35.587209 35.649444 C 35.684879 35.082567 35.788723 34.521864 35.89818 33.966774 C 36.007075 33.412245 36.122144 32.86389 36.242264 32.322832 C 36.362385 31.781774 36.488118 31.24745 36.619463 30.720985 C 36.750808 30.19452 36.887205 29.676474 37.029214 29.166285 C 37.170662 28.655536 37.318284 28.154328 37.469834 27.661539 C 37.621946 27.168189 37.779109 26.68438 37.941323 26.210113 C 38.103537 25.735846 38.26968 25.271121 38.441436 24.816498 C 38.61263 24.361314 38.788314 23.917356 38.96961 23.483501 C 39.149784 23.049645 39.335009 22.626454 39.523602 22.214488 C 39.712756 21.801961 39.905838 21.40122 40.103411 21.011705 C 40.300422 20.622751 40.501923 20.245022 40.706791 19.879642 C 40.912221 19.5137 41.120457 19.160667 41.333183 18.819982 C 41.545347 18.478736 41.760879 18.150961 41.98034 17.834972 C 42.199239 17.519544 42.420944 17.217026 42.646017 16.927977 C 42.87109 16.638929 43.098968 16.36279 43.330215 16.100122 C 43.5609 15.838015 43.793829 15.589378 44.030126 15.354212 C 44.265862 15.119606 44.504404 14.899033 44.74463 14.692491 C 44.984855 14.484827 45.227325 14.292878 45.471479 14.114961 C 45.716194 13.936483 45.962032 13.772598 46.209553 13.623866 C 46.457073 13.475135 46.706278 13.340436 46.956605 13.220329 C 47.207493 13.100784 47.45838 12.995831 47.710952 12.906033 C 47.963523 12.816235 48.216655 12.740469 48.47091 12.680418 C 48.725164 12.620367 48.979419 12.574908 49.234795 12.545166 C 49.489611 12.514862 49.744426 12.500273 49.999802 12.499717 C 50.255178 12.500282 50.510553 12.515441 50.765929 12.545192 C 51.020743 12.575505 51.274996 12.620972 51.528687 12.680471 C 51.78294 12.740531 52.036631 12.815745 52.289199 12.905552 C 52.541206 12.99592 52.793212 13.100881 53.042974 13.220435 C 53.293857 13.339989 53.543057 13.474697 53.790573 13.623437 C 54.038089 13.7733 54.284482 13.936632 54.528629 14.114558 C 54.772777 14.292483 55.01524 14.485563 55.255459 14.692113 C 55.495677 14.898663 55.73365 15.119806 55.969939 15.354981 C 56.205666 15.589594 56.439149 15.837678 56.669824 16.100916 C 56.9005 16.363031 57.128931 16.638617 57.353993 16.927672 C 57.578495 17.21729 57.801312 17.519816 58.0202 17.835251 C 58.239089 18.150687 58.454609 18.47847 58.666762 18.819723 C 58.878914 19.160977 59.08826 19.514017 59.293116 19.879404 C 59.497972 20.244792 59.69946 20.622528 59.897019 21.01205 C 60.094016 21.401011 60.287085 21.801758 60.476224 22.214292 C 60.665364 22.626826 60.850013 23.049462 61.030733 23.483885 C 61.211453 23.917186 61.387683 24.361711 61.558861 24.816901 C 61.730039 25.270968 61.897288 25.7357 62.058925 26.210533 C 62.221122 26.684806 62.377707 27.168059 62.529802 27.661414 C 62.682457 28.154209 62.828939 28.655422 62.970931 29.165615 C 63.112361 29.67637 63.249301 30.194982 63.380628 30.721452 C 63.511955 31.247921 63.637669 31.781126 63.758332 32.32275 C 63.878433 32.863813 63.992922 33.41161 64.102359 33.966704 C 64.211235 34.521237 64.314498 35.082505 64.412149 35.649385 C 64.509799 36.216266 64.601837 36.788759 64.688262 37.366864 C 64.774125 37.944409 64.853815 38.527004 64.928453 39.114651 C 65.00253 39.701736 65.070433 40.292751 65.132723 40.888255 C 65.194452 41.483198 65.250007 42.08207 65.299949 42.684309 C 65.350452 43.285987 65.393659 43.890472 65.431254 44.497201 C 65.468287 45.104491 65.500268 45.713466 65.524953 46.324123 C 65.5502 46.935343 65.568711 47.546562 65.581609 48.160026 C 65.593946 48.772928 65.600109 49.386392 65.600099 50.000417 Z M 65.600099 50.000417 " stroke="#424039" stroke-width="0.801" stroke-opacity="1" stroke-miterlimit="10"/><path fill="#4b206f" d="M 57.085938 97.933594 C 57.085938 98.578125 57.023438 99.21875 56.898438 99.851562 C 56.769531 100.488281 56.585938 101.101562 56.335938 101.699219 C 56.089844 102.296875 55.785156 102.863281 55.429688 103.402344 C 55.070312 103.9375 54.660156 104.4375 54.203125 104.894531 C 53.746094 105.351562 53.25 105.757812 52.710938 106.117188 C 52.175781 106.476562 51.609375 106.777344 51.011719 107.027344 C 50.414062 107.273438 49.796875 107.460938 49.164062 107.585938 C 48.53125 107.710938 47.890625 107.777344 47.242188 107.777344 C 46.597656 107.777344 45.957031 107.710938 45.324219 107.585938 C 44.691406 107.460938 44.074219 107.273438 43.476562 107.027344 C 42.878906 106.777344 42.3125 106.476562 41.777344 106.117188 C 41.238281 105.757812 40.742188 105.351562 40.285156 104.894531 C 39.828125 104.4375 39.417969 103.9375 39.058594 103.402344 C 38.703125 102.863281 38.398438 102.296875 38.152344 101.699219 C 37.902344 101.101562 37.714844 100.488281 37.589844 99.851562 C 37.464844 99.21875 37.402344 98.578125 37.402344 97.933594 C 37.402344 97.285156 37.464844 96.648438 37.589844 96.011719 C 37.714844 95.378906 37.902344 94.761719 38.152344 94.167969 C 38.398438 93.570312 38.703125 93.003906 39.058594 92.464844 C 39.417969 91.925781 39.828125 91.429688 40.285156 90.972656 C 40.742188 90.515625 41.238281 90.109375 41.777344 89.75 C 42.3125 89.390625 42.878906 89.085938 43.476562 88.839844 C 44.074219 88.59375 44.691406 88.40625 45.324219 88.28125 C 45.957031 88.152344 46.597656 88.089844 47.242188 88.089844 C 47.890625 88.089844 48.53125 88.152344 49.164062 88.28125 C 49.796875 88.40625 50.414062 88.59375 51.011719 88.839844 C 51.609375 89.085938 52.175781 89.390625 52.710938 89.75 C 53.25 90.109375 53.746094 90.515625 54.203125 90.972656 C 54.660156 91.429688 55.070312 91.925781 55.429688 92.464844 C 55.785156 93.003906 56.089844 93.570312 56.335938 94.167969 C 56.585938 94.761719 56.769531 95.378906 56.898438 96.011719 C 57.023438 96.648438 57.085938 97.285156 57.085938 97.933594 Z M 57.085938 97.933594 " fill-opacity="1" fill-rule="nonzero"/><path fill="#4b206f" d="M 307.085938 327.757812 C 307.085938 328.402344 307.023438 329.042969 306.898438 329.675781 C 306.769531 330.308594 306.585938 330.925781 306.335938 331.523438 C 306.089844 332.121094 305.785156 332.6875 305.429688 333.222656 C 305.070312 333.761719 304.660156 334.257812 304.203125 334.714844 C 303.746094 335.171875 303.25 335.582031 302.710938 335.941406 C 302.175781 336.296875 301.609375 336.601562 301.011719 336.847656 C 300.414062 337.097656 299.796875 337.28125 299.164062 337.410156 C 298.53125 337.535156 297.890625 337.597656 297.242188 337.597656 C 296.597656 337.597656 295.957031 337.535156 295.324219 337.410156 C 294.691406 337.28125 294.074219 337.097656 293.476562 336.847656 C 292.878906 336.601562 292.3125 336.296875 291.777344 335.941406 C 291.238281 335.582031 290.742188 335.171875 290.285156 334.714844 C 289.828125 334.257812 289.417969 333.761719 289.058594 333.222656 C 288.703125 332.6875 288.398438 332.121094 288.152344 331.523438 C 287.902344 330.925781 287.714844 330.308594 287.589844 329.675781 C 287.464844 329.042969 287.402344 328.402344 287.402344 327.757812 C 287.402344 327.109375 287.464844 326.46875 287.589844 325.835938 C 287.714844 325.203125 287.902344 324.585938 288.152344 323.988281 C 288.398438 323.390625 288.703125 322.824219 289.058594 322.289062 C 289.417969 321.75 289.828125 321.253906 290.285156 320.796875 C 290.742188 320.339844 291.238281 319.929688 291.777344 319.570312 C 292.3125 319.214844 292.878906 318.910156 293.476562 318.664062 C 294.074219 318.414062 294.691406 318.230469 295.324219 318.101562 C 295.957031 317.976562 296.597656 317.914062 297.242188 317.914062 C 297.890625 317.914062 298.53125 317.976562 299.164062 318.101562 C 299.796875 318.230469 300.414062 318.414062 301.011719 318.664062 C 301.609375 318.910156 302.175781 319.214844 302.710938 319.570312 C 303.25 319.929688 303.746094 320.339844 304.203125 320.796875 C 304.660156 321.253906 305.070312 321.75 305.429688 322.289062 C 305.785156 322.824219 306.089844 323.390625 306.335938 323.988281 C 306.585938 324.585938 306.769531 325.203125 306.898438 325.835938 C 307.023438 326.46875 307.085938 327.109375 307.085938 327.757812 Z M 307.085938 327.757812 " fill-opacity="1" fill-rule="nonzero"/><path fill="#4b206f" d="M 254.921875 236.710938 C 254.921875 237.359375 254.859375 238 254.730469 238.632812 C 254.605469 239.265625 254.417969 239.882812 254.171875 240.480469 C 253.925781 241.078125 253.621094 241.644531 253.261719 242.179688 C 252.902344 242.71875 252.496094 243.214844 252.039062 243.671875 C 251.582031 244.128906 251.085938 244.539062 250.546875 244.894531 C 250.007812 245.253906 249.441406 245.558594 248.84375 245.804688 C 248.25 246.054688 247.632812 246.238281 247 246.367188 C 246.363281 246.492188 245.726562 246.554688 245.078125 246.554688 C 244.433594 246.554688 243.792969 246.492188 243.160156 246.367188 C 242.523438 246.238281 241.910156 246.054688 241.3125 245.804688 C 240.714844 245.558594 240.148438 245.253906 239.609375 244.894531 C 239.074219 244.539062 238.574219 244.128906 238.117188 243.671875 C 237.660156 243.214844 237.253906 242.71875 236.894531 242.179688 C 236.535156 241.644531 236.234375 241.078125 235.984375 240.480469 C 235.738281 239.882812 235.550781 239.265625 235.425781 238.632812 C 235.300781 238 235.234375 237.359375 235.234375 236.710938 C 235.234375 236.066406 235.300781 235.425781 235.425781 234.792969 C 235.550781 234.160156 235.738281 233.542969 235.984375 232.945312 C 236.234375 232.347656 236.535156 231.78125 236.894531 231.246094 C 237.253906 230.707031 237.660156 230.210938 238.117188 229.753906 C 238.574219 229.296875 239.074219 228.886719 239.609375 228.527344 C 240.148438 228.167969 240.714844 227.867188 241.3125 227.621094 C 241.910156 227.371094 242.523438 227.183594 243.160156 227.058594 C 243.792969 226.933594 244.433594 226.871094 245.078125 226.871094 C 245.726562 226.871094 246.363281 226.933594 247 227.058594 C 247.632812 227.183594 248.25 227.371094 248.84375 227.621094 C 249.441406 227.867188 250.007812 228.167969 250.546875 228.527344 C 251.085938 228.886719 251.582031 229.296875 252.039062 229.753906 C 252.496094 230.210938 252.902344 230.707031 253.261719 231.246094 C 253.621094 231.78125 253.925781 232.347656 254.171875 232.945312 C 254.417969 233.542969 254.605469 234.160156 254.730469 234.792969 C 254.859375 235.425781 254.921875 236.066406 254.921875 236.710938 Z M 254.921875 236.710938 " fill-opacity="1" fill-rule="nonzero"/><path fill="#4b206f" d="M 235.234375 26.082031 C 235.234375 26.730469 235.171875 27.367188 235.046875 28.003906 C 234.921875 28.636719 234.734375 29.253906 234.488281 29.847656 C 234.238281 30.445312 233.9375 31.011719 233.578125 31.550781 C 233.21875 32.089844 232.808594 32.585938 232.351562 33.042969 C 231.894531 33.5 231.398438 33.90625 230.863281 34.265625 C 230.324219 34.625 229.757812 34.929688 229.160156 35.175781 C 228.5625 35.421875 227.949219 35.609375 227.3125 35.734375 C 226.679688 35.863281 226.039062 35.925781 225.394531 35.925781 C 224.746094 35.925781 224.105469 35.863281 223.472656 35.734375 C 222.839844 35.609375 222.222656 35.421875 221.628906 35.175781 C 221.03125 34.929688 220.460938 34.625 219.925781 34.265625 C 219.386719 33.90625 218.890625 33.5 218.433594 33.042969 C 217.976562 32.585938 217.570312 32.089844 217.210938 31.550781 C 216.851562 31.011719 216.546875 30.445312 216.300781 29.847656 C 216.054688 29.253906 215.867188 28.636719 215.742188 28.003906 C 215.613281 27.367188 215.550781 26.730469 215.550781 26.082031 C 215.550781 25.4375 215.613281 24.796875 215.742188 24.164062 C 215.867188 23.527344 216.054688 22.914062 216.300781 22.316406 C 216.546875 21.71875 216.851562 21.152344 217.210938 20.613281 C 217.570312 20.078125 217.976562 19.578125 218.433594 19.121094 C 218.890625 18.664062 219.386719 18.257812 219.925781 17.898438 C 220.460938 17.539062 221.03125 17.238281 221.628906 16.988281 C 222.222656 16.742188 222.839844 16.554688 223.472656 16.429688 C 224.105469 16.304688 224.746094 16.238281 225.394531 16.238281 C 226.039062 16.238281 226.679688 16.304688 227.3125 16.429688 C 227.949219 16.554688 228.5625 16.742188 229.160156 16.988281 C 229.757812 17.238281 230.324219 17.539062 230.863281 17.898438 C 231.398438 18.257812 231.894531 18.664062 232.351562 19.121094 C 232.808594 19.578125 233.21875 20.078125 233.578125 20.613281 C 233.9375 21.152344 234.238281 21.71875 234.488281 22.316406 C 234.734375 22.914062 234.921875 23.527344 235.046875 24.164062 C 235.171875 24.796875 235.234375 25.4375 235.234375 26.082031 Z M 235.234375 26.082031 " fill-opacity="1" fill-rule="nonzero"/><path fill="#4b206f" d="M 66.929688 317.914062 C 66.929688 318.558594 66.867188 319.199219 66.738281 319.832031 C 66.613281 320.46875 66.425781 321.082031 66.179688 321.679688 C 65.933594 322.277344 65.628906 322.84375 65.269531 323.382812 C 64.910156 323.917969 64.503906 324.417969 64.046875 324.871094 C 63.589844 325.328125 63.09375 325.738281 62.554688 326.097656 C 62.015625 326.457031 61.449219 326.757812 60.851562 327.007812 C 60.257812 327.253906 59.640625 327.441406 59.007812 327.566406 C 58.371094 327.691406 57.734375 327.753906 57.085938 327.757812 C 56.441406 327.753906 55.800781 327.691406 55.167969 327.566406 C 54.53125 327.441406 53.917969 327.253906 53.320312 327.007812 C 52.722656 326.757812 52.15625 326.457031 51.617188 326.097656 C 51.082031 325.738281 50.582031 325.328125 50.125 324.871094 C 49.667969 324.417969 49.261719 323.917969 48.902344 323.382812 C 48.542969 322.84375 48.242188 322.277344 47.992188 321.679688 C 47.746094 321.082031 47.558594 320.46875 47.433594 319.832031 C 47.308594 319.199219 47.242188 318.558594 47.242188 317.914062 C 47.242188 317.265625 47.308594 316.628906 47.433594 315.992188 C 47.558594 315.359375 47.746094 314.742188 47.992188 314.148438 C 48.242188 313.550781 48.542969 312.984375 48.902344 312.445312 C 49.261719 311.90625 49.667969 311.410156 50.125 310.953125 C 50.582031 310.496094 51.082031 310.089844 51.617188 309.730469 C 52.15625 309.371094 52.722656 309.066406 53.320312 308.820312 C 53.917969 308.574219 54.53125 308.386719 55.167969 308.261719 C 55.800781 308.132812 56.441406 308.070312 57.085938 308.070312 C 57.734375 308.070312 58.371094 308.132812 59.007812 308.261719 C 59.640625 308.386719 60.257812 308.574219 60.851562 308.820312 C 61.449219 309.066406 62.015625 309.371094 62.554688 309.730469 C 63.09375 310.089844 63.589844 310.496094 64.046875 310.953125 C 64.503906 311.410156 64.910156 311.90625 65.269531 312.445312 C 65.628906 312.984375 65.933594 313.550781 66.179688 314.148438 C 66.425781 314.742188 66.613281 315.359375 66.738281 315.992188 C 66.867188 316.628906 66.929688 317.265625 66.929688 317.914062 Z M 66.929688 317.914062 " fill-opacity="1" fill-rule="nonzero"/><g clip-path="url(#id1)"><path fill="#4b206f" d="M 161.671875 218.21875 C 161.359375 217.152344 160.242188 216.539062 159.175781 216.847656 C 158.105469 217.15625 157.492188 218.273438 157.800781 219.339844 C 159.527344 225.257812 163.5 230.390625 168.878906 234.003906 C 174.089844 237.503906 180.628906 239.589844 187.710938 239.589844 C 196.171875 239.589844 203.851562 236.613281 209.425781 231.804688 C 215.078125 226.925781 218.578125 220.167969 218.578125 212.6875 C 218.578125 205.113281 215.070312 199.378906 209.371094 195 C 203.914062 190.804688 196.449219 187.910156 188.199219 185.851562 L 188.203125 185.847656 C 188.148438 185.832031 188.09375 185.820312 188.039062 185.8125 C 180.15625 183.984375 172.699219 181 167.585938 176.589844 C 163.476562 173.042969 160.886719 168.539062 160.886719 162.921875 C 160.886719 156.660156 163.847656 150.972656 168.632812 146.847656 C 173.5 142.648438 180.242188 140.054688 187.710938 140.054688 C 193.941406 140.054688 199.664062 141.859375 204.210938 144.886719 C 208.808594 147.953125 212.203125 152.265625 213.699219 157.222656 C 214.015625 158.289062 215.140625 158.894531 216.210938 158.578125 C 217.277344 158.261719 217.886719 157.136719 217.570312 156.074219 C 215.800781 150.203125 211.820312 145.125 206.453125 141.546875 C 201.253906 138.082031 194.75 136.019531 187.710938 136.019531 C 179.25 136.019531 171.570312 138.992188 165.996094 143.804688 C 160.339844 148.679688 156.84375 155.4375 156.84375 162.921875 C 156.84375 169.839844 159.972656 175.339844 164.945312 179.628906 C 170.605469 184.511719 178.667969 187.773438 187.121094 189.734375 C 187.152344 189.746094 187.1875 189.753906 187.21875 189.761719 L 187.222656 189.757812 C 194.988281 191.699219 201.949219 194.371094 206.90625 198.183594 C 211.628906 201.8125 214.53125 206.519531 214.53125 212.6875 C 214.53125 218.949219 211.574219 224.632812 206.789062 228.765625 C 201.921875 232.960938 195.179688 235.554688 187.710938 235.554688 C 181.441406 235.554688 175.6875 233.730469 171.121094 230.664062 C 166.515625 227.566406 163.125 223.214844 161.671875 218.21875 " fill-opacity="1" fill-rule="nonzero"/></g><g clip-path="url(#id2)"><path fill="#4b206f" d="M 189.730469 123.242188 C 189.730469 122.128906 188.828125 121.226562 187.710938 121.226562 C 186.59375 121.226562 185.691406 122.128906 185.691406 123.242188 L 185.691406 252.347656 C 185.691406 253.460938 186.59375 254.367188 187.710938 254.367188 C 188.828125 254.367188 189.730469 253.460938 189.730469 252.347656 L 189.730469 123.242188 " fill-opacity="1" fill-rule="nonzero"/></g></svg>