<svg xmlns="http://www.w3.org/2000/svg" xmlns:xlink="http://www.w3.org/1999/xlink" width="500" zoomAndPan="magnify" viewBox="0 0 375 374.999991" height="500" preserveAspectRatio="xMidYMid meet" version="1.0"><defs><g/><clipPath id="id1"><path d="M 23.121094 151.371094 L 41.871094 151.371094 L 41.871094 203.871094 L 23.121094 203.871094 Z M 23.121094 151.371094 " clip-rule="nonzero"/></clipPath><clipPath id="id2"><path d="M 339 167.117188 L 357.742188 167.117188 L 357.742188 219.617188 L 339 219.617188 Z M 339 167.117188 " clip-rule="nonzero"/></clipPath><clipPath id="id3"><path d="M 192 162 L 213 162 L 213 213 L 192 213 Z M 192 162 " clip-rule="nonzero"/></clipPath><clipPath id="id4"><path d="M 212.613281 163.382812 L 194.957031 212.824219 L 192.132812 211.816406 L 209.789062 162.375 Z M 212.613281 163.382812 " clip-rule="nonzero"/></clipPath><clipPath id="id5"><path d="M 212.613281 163.382812 L 194.957031 212.824219 L 192.132812 211.816406 L 209.789062 162.375 Z M 212.613281 163.382812 " clip-rule="nonzero"/></clipPath><clipPath id="id6"><path d="M 212.613281 163.382812 L 194.957031 212.824219 L 192.132812 211.816406 L 209.789062 162.375 Z M 212.613281 163.382812 " clip-rule="nonzero"/></clipPath></defs><g clip-path="url(#id1)"><path fill="#000000" d="M 23.285156 177.621094 L 37.445312 203.871094 L 41.789062 203.871094 L 27.574219 177.621094 L 41.730469 151.371094 L 37.445312 151.371094 Z M 23.285156 177.621094 " fill-opacity="1" fill-rule="nonzero"/></g><g clip-path="url(#id2)"><path fill="#000000" d="M 357.578125 193.367188 L 343.421875 167.117188 L 339.074219 167.117188 L 353.289062 193.367188 L 339.132812 219.617188 L 343.421875 219.617188 Z M 357.578125 193.367188 " fill-opacity="1" fill-rule="nonzero"/></g><g clip-path="url(#id3)"><g clip-path="url(#id4)"><g clip-path="url(#id5)"><g clip-path="url(#id6)"><path fill="#010101" d="M 212.480469 163.335938 L 194.832031 212.757812 L 192.269531 211.839844 L 209.917969 162.417969 Z M 212.480469 163.335938 " fill-opacity="1" fill-rule="nonzero"/></g></g></g></g><g fill="#4b206f" fill-opacity="1"><g transform="translate(32.440293, 186.988639)"><g><path d="M 21.234375 1.4375 L 18.859375 3.03125 L 16.28125 -0.359375 C 15.101562 0.0664062 13.847656 0.28125 12.515625 0.28125 C 11.003906 0.28125 9.617188 0.03125 8.359375 -0.46875 C 7.097656 -0.976562 6.007812 -1.679688 5.09375 -2.578125 C 4.175781 -3.484375 3.460938 -4.535156 2.953125 -5.734375 C 2.453125 -6.929688 2.203125 -8.226562 2.203125 -9.625 C 2.203125 -11.019531 2.453125 -12.316406 2.953125 -13.515625 C 3.460938 -14.710938 4.175781 -15.757812 5.09375 -16.65625 C 6.007812 -17.5625 7.097656 -18.265625 8.359375 -18.765625 C 9.617188 -19.273438 11.003906 -19.53125 12.515625 -19.53125 C 14.015625 -19.53125 15.390625 -19.273438 16.640625 -18.765625 C 17.898438 -18.265625 18.992188 -17.5625 19.921875 -16.65625 C 20.847656 -15.757812 21.5625 -14.710938 22.0625 -13.515625 C 22.570312 -12.316406 22.828125 -11.019531 22.828125 -9.625 C 22.828125 -7.976562 22.472656 -6.46875 21.765625 -5.09375 C 21.054688 -3.71875 20.085938 -2.578125 18.859375 -1.671875 Z M 19.796875 -9.625 C 19.796875 -10.957031 19.484375 -12.148438 18.859375 -13.203125 C 18.242188 -14.265625 17.382812 -15.101562 16.28125 -15.71875 C 15.175781 -16.332031 13.921875 -16.640625 12.515625 -16.640625 C 11.066406 -16.640625 9.796875 -16.332031 8.703125 -15.71875 C 7.609375 -15.101562 6.753906 -14.265625 6.140625 -13.203125 C 5.523438 -12.148438 5.21875 -10.957031 5.21875 -9.625 C 5.21875 -8.289062 5.523438 -7.09375 6.140625 -6.03125 C 6.753906 -4.976562 7.609375 -4.144531 8.703125 -3.53125 C 9.796875 -2.914062 11.066406 -2.609375 12.515625 -2.609375 C 13.171875 -2.609375 13.800781 -2.679688 14.40625 -2.828125 L 11.578125 -6.515625 C 11.597656 -6.515625 11.722656 -6.59375 11.953125 -6.75 C 12.191406 -6.90625 12.472656 -7.078125 12.796875 -7.265625 C 13.117188 -7.460938 13.40625 -7.640625 13.65625 -7.796875 C 13.90625 -7.953125 14.03125 -8.03125 14.03125 -8.03125 L 17.078125 -4.046875 C 17.921875 -4.671875 18.582031 -5.46875 19.0625 -6.4375 C 19.550781 -7.40625 19.796875 -8.46875 19.796875 -9.625 Z M 19.796875 -9.625 "/></g></g></g><g fill="#4b206f" fill-opacity="1"><g transform="translate(57.458106, 186.988639)"><g><path d="M 20.375 -19.28125 L 20.375 -8.109375 C 20.375 -6.515625 20.007812 -5.09375 19.28125 -3.84375 C 18.5625 -2.601562 17.5625 -1.625 16.28125 -0.90625 C 15 -0.1875 13.523438 0.171875 11.859375 0.171875 C 10.171875 0.171875 8.6875 -0.1875 7.40625 -0.90625 C 6.132812 -1.625 5.132812 -2.601562 4.40625 -3.84375 C 3.6875 -5.09375 3.328125 -6.515625 3.328125 -8.109375 L 3.328125 -19.28125 L 6.296875 -19.28125 L 6.296875 -8.3125 C 6.296875 -7.226562 6.546875 -6.265625 7.046875 -5.421875 C 7.554688 -4.578125 8.234375 -3.910156 9.078125 -3.421875 C 9.921875 -2.929688 10.847656 -2.6875 11.859375 -2.6875 C 12.898438 -2.6875 13.847656 -2.929688 14.703125 -3.421875 C 15.566406 -3.910156 16.253906 -4.578125 16.765625 -5.421875 C 17.285156 -6.265625 17.546875 -7.226562 17.546875 -8.3125 L 17.546875 -19.28125 Z M 20.375 -19.28125 "/></g></g></g><g fill="#4b206f" fill-opacity="1"><g transform="translate(81.1563, 186.988639)"><g><path d="M 17.8125 0 L 15.84375 -4.671875 L 6.484375 -4.671875 L 4.484375 0 L 1.4375 0 L 9.65625 -19.25 L 12.875 -19.25 L 21.03125 0 Z M 9.6875 -12.15625 L 7.703125 -7.53125 L 14.625 -7.53125 L 12.59375 -12.265625 C 12.351562 -12.867188 12.113281 -13.484375 11.875 -14.109375 C 11.632812 -14.742188 11.398438 -15.40625 11.171875 -16.09375 C 10.910156 -15.394531 10.660156 -14.710938 10.421875 -14.046875 C 10.179688 -13.390625 9.9375 -12.757812 9.6875 -12.15625 Z M 9.6875 -12.15625 "/></g></g></g><g fill="#4b206f" fill-opacity="1"><g transform="translate(103.617354, 186.988639)"><g><path d="M 18.84375 -19.25 L 21.8125 -19.25 L 21.8125 0 L 18.96875 0 L 6.109375 -14.875 C 6.210938 -13.738281 6.316406 -12.597656 6.421875 -11.453125 C 6.535156 -10.304688 6.59375 -9.15625 6.59375 -8 L 6.59375 0 L 3.625 0 L 3.625 -19.25 L 6.40625 -19.25 L 19.28125 -4.015625 C 19.144531 -4.910156 19.046875 -5.867188 18.984375 -6.890625 C 18.921875 -7.921875 18.878906 -8.953125 18.859375 -9.984375 C 18.847656 -11.023438 18.84375 -12.003906 18.84375 -12.921875 Z M 18.84375 -19.25 "/></g></g></g><g fill="#4b206f" fill-opacity="1"><g transform="translate(129.020055, 186.988639)"><g><path d="M 7.84375 0 L 7.84375 -16.390625 L 1.671875 -16.390625 L 1.671875 -19.25 L 17.125 -19.25 L 17.125 -16.390625 L 10.8125 -16.390625 L 10.8125 0 Z M 7.84375 0 "/></g></g></g><g fill="#4b206f" fill-opacity="1"><g transform="translate(147.824654, 186.988639)"><g><path d="M 20.375 -19.28125 L 20.375 -8.109375 C 20.375 -6.515625 20.007812 -5.09375 19.28125 -3.84375 C 18.5625 -2.601562 17.5625 -1.625 16.28125 -0.90625 C 15 -0.1875 13.523438 0.171875 11.859375 0.171875 C 10.171875 0.171875 8.6875 -0.1875 7.40625 -0.90625 C 6.132812 -1.625 5.132812 -2.601562 4.40625 -3.84375 C 3.6875 -5.09375 3.328125 -6.515625 3.328125 -8.109375 L 3.328125 -19.28125 L 6.296875 -19.28125 L 6.296875 -8.3125 C 6.296875 -7.226562 6.546875 -6.265625 7.046875 -5.421875 C 7.554688 -4.578125 8.234375 -3.910156 9.078125 -3.421875 C 9.921875 -2.929688 10.847656 -2.6875 11.859375 -2.6875 C 12.898438 -2.6875 13.847656 -2.929688 14.703125 -3.421875 C 15.566406 -3.910156 16.253906 -4.578125 16.765625 -5.421875 C 17.285156 -6.265625 17.546875 -7.226562 17.546875 -8.3125 L 17.546875 -19.28125 Z M 20.375 -19.28125 "/></g></g></g><g fill="#4b206f" fill-opacity="1"><g transform="translate(171.522849, 186.988639)"><g><path d="M 6.546875 -19.25 L 13.609375 -8.96875 L 20.765625 -19.25 L 23.5625 -19.25 L 23.5625 0 L 20.59375 0 L 20.59375 -8 C 20.59375 -9.175781 20.613281 -10.289062 20.65625 -11.34375 C 20.707031 -12.394531 20.789062 -13.445312 20.90625 -14.5 L 14.46875 -5.53125 L 12.65625 -5.53125 L 6.296875 -14.46875 C 6.410156 -13.414062 6.488281 -12.367188 6.53125 -11.328125 C 6.570312 -10.285156 6.59375 -9.175781 6.59375 -8 L 6.59375 0 L 3.625 0 L 3.625 -19.25 Z M 6.546875 -19.25 "/></g></g></g><g fill="#4b206f" fill-opacity="1"><g transform="translate(204.731563, 203.363643)"><g><path d="M 19.75 -2.5625 C 19.300781 -2.113281 18.695312 -1.675781 17.9375 -1.25 C 17.175781 -0.820312 16.300781 -0.457031 15.3125 -0.15625 C 14.320312 0.132812 13.269531 0.28125 12.15625 0.28125 C 10.757812 0.28125 9.457031 0.046875 8.25 -0.421875 C 7.039062 -0.890625 5.984375 -1.554688 5.078125 -2.421875 C 4.171875 -3.285156 3.460938 -4.328125 2.953125 -5.546875 C 2.453125 -6.765625 2.203125 -8.125 2.203125 -9.625 C 2.203125 -11.039062 2.46875 -12.34375 3 -13.53125 C 3.53125 -14.71875 4.265625 -15.75 5.203125 -16.625 C 6.148438 -17.507812 7.226562 -18.195312 8.4375 -18.6875 C 9.644531 -19.175781 10.929688 -19.421875 12.296875 -19.421875 C 13.429688 -19.421875 14.5 -19.257812 15.5 -18.9375 C 16.5 -18.613281 17.382812 -18.203125 18.15625 -17.703125 C 18.9375 -17.210938 19.554688 -16.691406 20.015625 -16.140625 L 18.125 -13.890625 C 17.3125 -14.640625 16.414062 -15.253906 15.4375 -15.734375 C 14.457031 -16.222656 13.375 -16.46875 12.1875 -16.46875 C 11.007812 -16.46875 9.890625 -16.191406 8.828125 -15.640625 C 7.765625 -15.097656 6.894531 -14.3125 6.21875 -13.28125 C 5.550781 -12.257812 5.21875 -11.039062 5.21875 -9.625 C 5.21875 -8.082031 5.5625 -6.796875 6.25 -5.765625 C 6.9375 -4.742188 7.832031 -3.972656 8.9375 -3.453125 C 10.050781 -2.929688 11.253906 -2.671875 12.546875 -2.671875 C 13.847656 -2.671875 14.972656 -2.921875 15.921875 -3.421875 C 16.878906 -3.929688 17.664062 -4.457031 18.28125 -5 Z M 19.75 -2.5625 "/></g></g></g><g fill="#4b206f" fill-opacity="1"><g transform="translate(226.725253, 203.363643)"><g><path d="M 17.8125 0 L 15.84375 -4.671875 L 6.484375 -4.671875 L 4.484375 0 L 1.4375 0 L 9.65625 -19.25 L 12.875 -19.25 L 21.03125 0 Z M 9.6875 -12.15625 L 7.703125 -7.53125 L 14.625 -7.53125 L 12.59375 -12.265625 C 12.351562 -12.867188 12.113281 -13.484375 11.875 -14.109375 C 11.632812 -14.742188 11.398438 -15.40625 11.171875 -16.09375 C 10.910156 -15.394531 10.660156 -14.710938 10.421875 -14.046875 C 10.179688 -13.390625 9.9375 -12.757812 9.6875 -12.15625 Z M 9.6875 -12.15625 "/></g></g></g><g fill="#4b206f" fill-opacity="1"><g transform="translate(249.186307, 203.363643)"><g><path d="M 12.8125 -19.25 C 13.875 -19.25 14.851562 -18.988281 15.75 -18.46875 C 16.65625 -17.945312 17.378906 -17.238281 17.921875 -16.34375 C 18.460938 -15.457031 18.734375 -14.457031 18.734375 -13.34375 C 18.734375 -12.195312 18.453125 -11.164062 17.890625 -10.25 C 17.328125 -9.332031 16.582031 -8.601562 15.65625 -8.0625 C 14.726562 -7.53125 13.707031 -7.265625 12.59375 -7.265625 L 6.59375 -7.265625 L 6.59375 0 L 3.625 0 L 3.625 -19.25 Z M 12.453125 -10.125 C 13.023438 -10.125 13.550781 -10.269531 14.03125 -10.5625 C 14.519531 -10.851562 14.910156 -11.238281 15.203125 -11.71875 C 15.492188 -12.207031 15.640625 -12.75 15.640625 -13.34375 C 15.640625 -13.90625 15.492188 -14.414062 15.203125 -14.875 C 14.910156 -15.332031 14.519531 -15.695312 14.03125 -15.96875 C 13.550781 -16.25 13.023438 -16.390625 12.453125 -16.390625 L 6.59375 -16.390625 L 6.59375 -10.125 Z M 12.453125 -10.125 "/></g></g></g><g fill="#4b206f" fill-opacity="1"><g transform="translate(270.135287, 203.363643)"><g><path d="M 14 0 L 3.265625 0 L 3.265625 -2.828125 L 7.15625 -2.828125 L 7.15625 -16.421875 L 3.265625 -16.421875 L 3.265625 -19.25 L 14 -19.25 L 14 -16.421875 L 10.125 -16.421875 L 10.125 -2.828125 L 14 -2.828125 Z M 14 0 "/></g></g></g><g fill="#4b206f" fill-opacity="1"><g transform="translate(287.400324, 203.363643)"><g><path d="M 7.84375 0 L 7.84375 -16.390625 L 1.671875 -16.390625 L 1.671875 -19.25 L 17.125 -19.25 L 17.125 -16.390625 L 10.8125 -16.390625 L 10.8125 0 Z M 7.84375 0 "/></g></g></g><g fill="#4b206f" fill-opacity="1"><g transform="translate(306.204922, 203.363643)"><g><path d="M 17.8125 0 L 15.84375 -4.671875 L 6.484375 -4.671875 L 4.484375 0 L 1.4375 0 L 9.65625 -19.25 L 12.875 -19.25 L 21.03125 0 Z M 9.6875 -12.15625 L 7.703125 -7.53125 L 14.625 -7.53125 L 12.59375 -12.265625 C 12.351562 -12.867188 12.113281 -13.484375 11.875 -14.109375 C 11.632812 -14.742188 11.398438 -15.40625 11.171875 -16.09375 C 10.910156 -15.394531 10.660156 -14.710938 10.421875 -14.046875 C 10.179688 -13.390625 9.9375 -12.757812 9.6875 -12.15625 Z M 9.6875 -12.15625 "/></g></g></g><g fill="#4b206f" fill-opacity="1"><g transform="translate(328.665977, 203.363643)"><g><path d="M 17.15625 -2.859375 L 17.15625 0 L 3.625 0 L 3.625 -19.25 L 6.59375 -19.25 L 6.59375 -2.859375 Z M 17.15625 -2.859375 "/></g></g></g></svg>