<svg xmlns="http://www.w3.org/2000/svg" xmlns:xlink="http://www.w3.org/1999/xlink" width="336" zoomAndPan="magnify" viewBox="0 0 252 54" height="72" preserveAspectRatio="xMidYMid meet" version="1.0"><defs><g/><clipPath id="id1"><path d="M 2.289062 1.804688 L 16.28125 1.804688 L 16.28125 40.09375 L 2.289062 40.09375 Z M 2.289062 1.804688 " clip-rule="nonzero"/></clipPath><clipPath id="id2"><path d="M 235.714844 12.921875 L 249.707031 12.921875 L 249.707031 51.210938 L 235.714844 51.210938 Z M 235.714844 12.921875 " clip-rule="nonzero"/></clipPath><clipPath id="id3"><path d="M 127 9 L 143 9 L 143 47 L 127 47 Z M 127 9 " clip-rule="nonzero"/></clipPath><clipPath id="id4"><path d="M 142.394531 10.15625 L 129.519531 46.214844 L 127.4375 45.472656 L 140.316406 9.414062 Z M 142.394531 10.15625 " clip-rule="nonzero"/></clipPath><clipPath id="id5"><path d="M 142.394531 10.15625 L 129.519531 46.214844 L 127.4375 45.472656 L 140.316406 9.414062 Z M 142.394531 10.15625 " clip-rule="nonzero"/></clipPath><clipPath id="id6"><path d="M 142.394531 10.15625 L 129.519531 46.214844 L 127.4375 45.472656 L 140.316406 9.414062 Z M 142.394531 10.15625 " clip-rule="nonzero"/></clipPath></defs><g clip-path="url(#id1)"><path fill="#000000" d="M 2.410156 20.949219 L 12.972656 40.09375 L 16.21875 40.09375 L 5.609375 20.949219 L 16.175781 1.804688 L 12.972656 1.804688 Z M 2.410156 20.949219 " fill-opacity="1" fill-rule="nonzero"/></g><g clip-path="url(#id2)"><path fill="#000000" d="M 249.582031 32.066406 L 239.019531 12.921875 L 235.777344 12.921875 L 246.382812 32.066406 L 235.820312 51.210938 L 239.019531 51.210938 Z M 249.582031 32.066406 " fill-opacity="1" fill-rule="nonzero"/></g><g clip-path="url(#id3)"><g clip-path="url(#id4)"><g clip-path="url(#id5)"><g clip-path="url(#id6)"><path fill="#010101" d="M 142.300781 10.121094 L 129.429688 46.167969 L 127.535156 45.492188 L 140.40625 9.445312 Z M 142.300781 10.121094 " fill-opacity="1" fill-rule="nonzero"/></g></g></g></g><g fill="#4b206f" fill-opacity="1"><g transform="translate(9.180574, 27.613201)"><g><path d="M 15.6875 1.0625 L 13.9375 2.234375 L 12.03125 -0.265625 C 11.164062 0.046875 10.238281 0.203125 9.25 0.203125 C 8.132812 0.203125 7.109375 0.015625 6.171875 -0.359375 C 5.242188 -0.734375 4.441406 -1.25 3.765625 -1.90625 C 3.085938 -2.570312 2.5625 -3.347656 2.1875 -4.234375 C 1.8125 -5.117188 1.625 -6.078125 1.625 -7.109375 C 1.625 -8.140625 1.8125 -9.097656 2.1875 -9.984375 C 2.5625 -10.878906 3.085938 -11.65625 3.765625 -12.3125 C 4.441406 -12.976562 5.242188 -13.5 6.171875 -13.875 C 7.109375 -14.25 8.132812 -14.4375 9.25 -14.4375 C 10.363281 -14.4375 11.382812 -14.25 12.3125 -13.875 C 13.238281 -13.5 14.039062 -12.976562 14.71875 -12.3125 C 15.40625 -11.65625 15.9375 -10.878906 16.3125 -9.984375 C 16.6875 -9.097656 16.875 -8.140625 16.875 -7.109375 C 16.875 -5.890625 16.613281 -4.769531 16.09375 -3.75 C 15.570312 -2.738281 14.851562 -1.898438 13.9375 -1.234375 Z M 14.640625 -7.109375 C 14.640625 -8.097656 14.40625 -8.984375 13.9375 -9.765625 C 13.476562 -10.546875 12.84375 -11.160156 12.03125 -11.609375 C 11.21875 -12.066406 10.289062 -12.296875 9.25 -12.296875 C 8.175781 -12.296875 7.234375 -12.066406 6.421875 -11.609375 C 5.617188 -11.160156 4.988281 -10.546875 4.53125 -9.765625 C 4.082031 -8.984375 3.859375 -8.097656 3.859375 -7.109375 C 3.859375 -6.117188 4.082031 -5.234375 4.53125 -4.453125 C 4.988281 -3.679688 5.617188 -3.066406 6.421875 -2.609375 C 7.234375 -2.160156 8.175781 -1.9375 9.25 -1.9375 C 9.738281 -1.9375 10.207031 -1.988281 10.65625 -2.09375 L 8.5625 -4.8125 C 8.570312 -4.8125 8.664062 -4.867188 8.84375 -4.984375 C 9.019531 -5.097656 9.222656 -5.226562 9.453125 -5.375 C 9.691406 -5.519531 9.90625 -5.648438 10.09375 -5.765625 C 10.28125 -5.878906 10.375 -5.9375 10.375 -5.9375 L 12.625 -2.984375 C 13.25 -3.441406 13.738281 -4.03125 14.09375 -4.75 C 14.457031 -5.46875 14.640625 -6.253906 14.640625 -7.109375 Z M 14.640625 -7.109375 "/></g></g></g><g fill="#4b206f" fill-opacity="1"><g transform="translate(27.678616, 27.613201)"><g><path d="M 15.0625 -14.25 L 15.0625 -6 C 15.0625 -4.820312 14.789062 -3.769531 14.25 -2.84375 C 13.71875 -1.925781 12.976562 -1.203125 12.03125 -0.671875 C 11.082031 -0.140625 9.992188 0.125 8.765625 0.125 C 7.515625 0.125 6.414062 -0.140625 5.46875 -0.671875 C 4.53125 -1.203125 3.789062 -1.925781 3.25 -2.84375 C 2.71875 -3.769531 2.453125 -4.820312 2.453125 -6 L 2.453125 -14.25 L 4.65625 -14.25 L 4.65625 -6.140625 C 4.65625 -5.335938 4.835938 -4.625 5.203125 -4 C 5.578125 -3.375 6.078125 -2.878906 6.703125 -2.515625 C 7.328125 -2.160156 8.015625 -1.984375 8.765625 -1.984375 C 9.535156 -1.984375 10.238281 -2.160156 10.875 -2.515625 C 11.507812 -2.878906 12.015625 -3.375 12.390625 -4 C 12.773438 -4.625 12.96875 -5.335938 12.96875 -6.140625 L 12.96875 -14.25 Z M 15.0625 -14.25 "/></g></g></g><g fill="#4b206f" fill-opacity="1"><g transform="translate(45.200938, 27.613201)"><g><path d="M 13.171875 0 L 11.703125 -3.453125 L 4.796875 -3.453125 L 3.3125 0 L 1.0625 0 L 7.140625 -14.234375 L 9.515625 -14.234375 L 15.546875 0 Z M 7.15625 -8.984375 L 5.6875 -5.5625 L 10.8125 -5.5625 L 9.3125 -9.0625 C 9.132812 -9.507812 8.957031 -9.96875 8.78125 -10.4375 C 8.601562 -10.90625 8.425781 -11.390625 8.25 -11.890625 C 8.0625 -11.378906 7.878906 -10.878906 7.703125 -10.390625 C 7.523438 -9.898438 7.34375 -9.429688 7.15625 -8.984375 Z M 7.15625 -8.984375 "/></g></g></g><g fill="#4b206f" fill-opacity="1"><g transform="translate(61.808525, 27.613201)"><g><path d="M 13.921875 -14.234375 L 16.125 -14.234375 L 16.125 0 L 14.03125 0 L 4.515625 -11 C 4.597656 -10.15625 4.675781 -9.3125 4.75 -8.46875 C 4.832031 -7.625 4.875 -6.773438 4.875 -5.921875 L 4.875 0 L 2.6875 0 L 2.6875 -14.234375 L 4.734375 -14.234375 L 14.25 -2.96875 C 14.15625 -3.632812 14.082031 -4.34375 14.03125 -5.09375 C 13.988281 -5.851562 13.957031 -6.613281 13.9375 -7.375 C 13.925781 -8.144531 13.921875 -8.867188 13.921875 -9.546875 Z M 13.921875 -14.234375 "/></g></g></g><g fill="#4b206f" fill-opacity="1"><g transform="translate(80.591151, 27.613201)"><g><path d="M 5.796875 0 L 5.796875 -12.109375 L 1.234375 -12.109375 L 1.234375 -14.234375 L 12.671875 -14.234375 L 12.671875 -12.109375 L 7.984375 -12.109375 L 7.984375 0 Z M 5.796875 0 "/></g></g></g><g fill="#4b206f" fill-opacity="1"><g transform="translate(94.495174, 27.613201)"><g><path d="M 15.0625 -14.25 L 15.0625 -6 C 15.0625 -4.820312 14.789062 -3.769531 14.25 -2.84375 C 13.71875 -1.925781 12.976562 -1.203125 12.03125 -0.671875 C 11.082031 -0.140625 9.992188 0.125 8.765625 0.125 C 7.515625 0.125 6.414062 -0.140625 5.46875 -0.671875 C 4.53125 -1.203125 3.789062 -1.925781 3.25 -2.84375 C 2.71875 -3.769531 2.453125 -4.820312 2.453125 -6 L 2.453125 -14.25 L 4.65625 -14.25 L 4.65625 -6.140625 C 4.65625 -5.335938 4.835938 -4.625 5.203125 -4 C 5.578125 -3.375 6.078125 -2.878906 6.703125 -2.515625 C 7.328125 -2.160156 8.015625 -1.984375 8.765625 -1.984375 C 9.535156 -1.984375 10.238281 -2.160156 10.875 -2.515625 C 11.507812 -2.878906 12.015625 -3.375 12.390625 -4 C 12.773438 -4.625 12.96875 -5.335938 12.96875 -6.140625 L 12.96875 -14.25 Z M 15.0625 -14.25 "/></g></g></g><g fill="#4b206f" fill-opacity="1"><g transform="translate(112.017496, 27.613201)"><g><path d="M 4.84375 -14.234375 L 10.0625 -6.625 L 15.34375 -14.234375 L 17.421875 -14.234375 L 17.421875 0 L 15.21875 0 L 15.21875 -5.921875 C 15.21875 -6.785156 15.234375 -7.601562 15.265625 -8.375 C 15.304688 -9.15625 15.367188 -9.9375 15.453125 -10.71875 L 10.6875 -4.078125 L 9.34375 -4.078125 L 4.65625 -10.6875 C 4.738281 -9.914062 4.796875 -9.144531 4.828125 -8.375 C 4.859375 -7.601562 4.875 -6.785156 4.875 -5.921875 L 4.875 0 L 2.6875 0 L 2.6875 -14.234375 Z M 4.84375 -14.234375 "/></g></g></g><g fill="#4b206f" fill-opacity="1"><g transform="translate(136.571853, 39.720783)"><g><path d="M 14.59375 -1.890625 C 14.269531 -1.566406 13.828125 -1.242188 13.265625 -0.921875 C 12.703125 -0.609375 12.050781 -0.34375 11.3125 -0.125 C 10.582031 0.09375 9.804688 0.203125 8.984375 0.203125 C 7.953125 0.203125 6.988281 0.03125 6.09375 -0.3125 C 5.195312 -0.65625 4.414062 -1.144531 3.75 -1.78125 C 3.082031 -2.425781 2.5625 -3.195312 2.1875 -4.09375 C 1.8125 -5 1.625 -6.003906 1.625 -7.109375 C 1.625 -8.160156 1.820312 -9.125 2.21875 -10 C 2.613281 -10.882812 3.160156 -11.648438 3.859375 -12.296875 C 4.554688 -12.953125 5.347656 -13.457031 6.234375 -13.8125 C 7.128906 -14.175781 8.082031 -14.359375 9.09375 -14.359375 C 9.925781 -14.359375 10.710938 -14.238281 11.453125 -14 C 12.191406 -13.757812 12.847656 -13.457031 13.421875 -13.09375 C 14.003906 -12.726562 14.460938 -12.34375 14.796875 -11.9375 L 13.390625 -10.265625 C 12.796875 -10.816406 12.132812 -11.269531 11.40625 -11.625 C 10.6875 -11.988281 9.882812 -12.171875 9 -12.171875 C 8.132812 -12.171875 7.304688 -11.96875 6.515625 -11.5625 C 5.734375 -11.15625 5.09375 -10.570312 4.59375 -9.8125 C 4.101562 -9.0625 3.859375 -8.160156 3.859375 -7.109375 C 3.859375 -5.972656 4.113281 -5.023438 4.625 -4.265625 C 5.132812 -3.503906 5.796875 -2.929688 6.609375 -2.546875 C 7.429688 -2.160156 8.316406 -1.96875 9.265625 -1.96875 C 10.234375 -1.96875 11.066406 -2.15625 11.765625 -2.53125 C 12.472656 -2.90625 13.054688 -3.296875 13.515625 -3.703125 Z M 14.59375 -1.890625 "/></g></g></g><g fill="#4b206f" fill-opacity="1"><g transform="translate(152.833873, 39.720783)"><g><path d="M 13.171875 0 L 11.703125 -3.453125 L 4.796875 -3.453125 L 3.3125 0 L 1.0625 0 L 7.140625 -14.234375 L 9.515625 -14.234375 L 15.546875 0 Z M 7.15625 -8.984375 L 5.6875 -5.5625 L 10.8125 -5.5625 L 9.3125 -9.0625 C 9.132812 -9.507812 8.957031 -9.96875 8.78125 -10.4375 C 8.601562 -10.90625 8.425781 -11.390625 8.25 -11.890625 C 8.0625 -11.378906 7.878906 -10.878906 7.703125 -10.390625 C 7.523438 -9.898438 7.34375 -9.429688 7.15625 -8.984375 Z M 7.15625 -8.984375 "/></g></g></g><g fill="#4b206f" fill-opacity="1"><g transform="translate(169.44146, 39.720783)"><g><path d="M 9.46875 -14.234375 C 10.257812 -14.234375 10.984375 -14.039062 11.640625 -13.65625 C 12.304688 -13.269531 12.835938 -12.742188 13.234375 -12.078125 C 13.640625 -11.421875 13.84375 -10.679688 13.84375 -9.859375 C 13.84375 -9.015625 13.632812 -8.253906 13.21875 -7.578125 C 12.8125 -6.898438 12.265625 -6.359375 11.578125 -5.953125 C 10.890625 -5.554688 10.132812 -5.359375 9.3125 -5.359375 L 4.875 -5.359375 L 4.875 0 L 2.6875 0 L 2.6875 -14.234375 Z M 9.203125 -7.484375 C 9.628906 -7.484375 10.019531 -7.585938 10.375 -7.796875 C 10.738281 -8.015625 11.023438 -8.300781 11.234375 -8.65625 C 11.453125 -9.019531 11.5625 -9.421875 11.5625 -9.859375 C 11.5625 -10.273438 11.453125 -10.648438 11.234375 -10.984375 C 11.023438 -11.328125 10.738281 -11.597656 10.375 -11.796875 C 10.019531 -12.003906 9.628906 -12.109375 9.203125 -12.109375 L 4.875 -12.109375 L 4.875 -7.484375 Z M 9.203125 -7.484375 "/></g></g></g><g fill="#4b206f" fill-opacity="1"><g transform="translate(184.931028, 39.720783)"><g><path d="M 10.34375 0 L 2.421875 0 L 2.421875 -2.09375 L 5.28125 -2.09375 L 5.28125 -12.140625 L 2.421875 -12.140625 L 2.421875 -14.234375 L 10.34375 -14.234375 L 10.34375 -12.140625 L 7.484375 -12.140625 L 7.484375 -2.09375 L 10.34375 -2.09375 Z M 10.34375 0 "/></g></g></g><g fill="#4b206f" fill-opacity="1"><g transform="translate(197.696707, 39.720783)"><g><path d="M 5.796875 0 L 5.796875 -12.109375 L 1.234375 -12.109375 L 1.234375 -14.234375 L 12.671875 -14.234375 L 12.671875 -12.109375 L 7.984375 -12.109375 L 7.984375 0 Z M 5.796875 0 "/></g></g></g><g fill="#4b206f" fill-opacity="1"><g transform="translate(211.60073, 39.720783)"><g><path d="M 13.171875 0 L 11.703125 -3.453125 L 4.796875 -3.453125 L 3.3125 0 L 1.0625 0 L 7.140625 -14.234375 L 9.515625 -14.234375 L 15.546875 0 Z M 7.15625 -8.984375 L 5.6875 -5.5625 L 10.8125 -5.5625 L 9.3125 -9.0625 C 9.132812 -9.507812 8.957031 -9.96875 8.78125 -10.4375 C 8.601562 -10.90625 8.425781 -11.390625 8.25 -11.890625 C 8.0625 -11.378906 7.878906 -10.878906 7.703125 -10.390625 C 7.523438 -9.898438 7.34375 -9.429688 7.15625 -8.984375 Z M 7.15625 -8.984375 "/></g></g></g><g fill="#4b206f" fill-opacity="1"><g transform="translate(228.208317, 39.720783)"><g><path d="M 12.6875 -2.109375 L 12.6875 0 L 2.6875 0 L 2.6875 -14.234375 L 4.875 -14.234375 L 4.875 -2.109375 Z M 12.6875 -2.109375 "/></g></g></g></svg>