<svg xmlns="http://www.w3.org/2000/svg" xmlns:xlink="http://www.w3.org/1999/xlink" width="6912" zoomAndPan="magnify" viewBox="0 0 5184 1051.499947" height="1401" preserveAspectRatio="xMidYMid meet" version="1.0"><defs><g/><clipPath id="id1"><path d="M 3 2.027344 L 288 2.027344 L 288 810.890625 L 3 810.890625 Z M 3 2.027344 " clip-rule="nonzero"/></clipPath><clipPath id="id2"><path d="M 4896 241.6875 L 5181 241.6875 L 5181 1050.554688 L 4896 1050.554688 Z M 4896 241.6875 " clip-rule="nonzero"/></clipPath><clipPath id="id3"><path d="M 2623 169 L 2934 169 L 2934 945 L 2623 945 Z M 2623 169 " clip-rule="nonzero"/></clipPath><clipPath id="id4"><path d="M 2935.507812 183.867188 L 2663.480469 945.621094 L 2621.828125 930.746094 L 2893.855469 168.996094 Z M 2935.507812 183.867188 " clip-rule="nonzero"/></clipPath><clipPath id="id5"><path d="M 2935.507812 183.867188 L 2663.480469 945.621094 L 2621.828125 930.746094 L 2893.855469 168.996094 Z M 2935.507812 183.867188 " clip-rule="nonzero"/></clipPath><clipPath id="id6"><path d="M 2935.507812 183.867188 L 2663.480469 945.621094 L 2621.828125 930.746094 L 2893.855469 168.996094 Z M 2935.507812 183.867188 " clip-rule="nonzero"/></clipPath></defs><g clip-path="url(#id1)"><path fill="#000000" d="M 3.757812 406.457031 L 221.101562 810.890625 L 287.835938 810.890625 L 69.589844 406.457031 L 286.933594 2.027344 L 221.101562 2.027344 Z M 3.757812 406.457031 " fill-opacity="1" fill-rule="nonzero"/></g><g clip-path="url(#id2)"><path fill="#000000" d="M 5180.238281 646.121094 L 4962.894531 241.6875 L 4896.160156 241.6875 L 5114.40625 646.121094 L 4897.0625 1050.554688 L 4962.894531 1050.554688 Z M 5180.238281 646.121094 " fill-opacity="1" fill-rule="nonzero"/></g><g clip-path="url(#id3)"><g clip-path="url(#id4)"><g clip-path="url(#id5)"><g clip-path="url(#id6)"><path fill="#010101" d="M 2933.539062 183.167969 L 2661.625 944.601562 L 2623.835938 931.105469 L 2895.75 169.671875 Z M 2933.539062 183.167969 " fill-opacity="1" fill-rule="nonzero"/></g></g></g></g><g fill="#4b206f" fill-opacity="1"><g transform="translate(145.518359, 549.416135)"><g><path d="M 328.671875 22.140625 L 292.0625 46.828125 L 252.046875 -5.53125 C 233.878906 0.988281 214.4375 4.25 193.71875 4.25 C 170.445312 4.25 149.015625 0.347656 129.421875 -7.453125 C 109.835938 -15.253906 92.945312 -26.109375 78.75 -40.015625 C 64.5625 -53.921875 53.566406 -70.171875 45.765625 -88.765625 C 37.960938 -107.359375 34.0625 -127.441406 34.0625 -149.015625 C 34.0625 -170.585938 37.960938 -190.664062 45.765625 -209.25 C 53.566406 -227.84375 64.5625 -244.09375 78.75 -258 C 92.945312 -271.90625 109.835938 -282.757812 129.421875 -290.5625 C 149.015625 -298.375 170.445312 -302.28125 193.71875 -302.28125 C 216.988281 -302.28125 238.34375 -298.375 257.78125 -290.5625 C 277.226562 -282.757812 294.117188 -271.90625 308.453125 -258 C 322.785156 -244.09375 333.851562 -227.84375 341.65625 -209.25 C 349.46875 -190.664062 353.375 -170.585938 353.375 -149.015625 C 353.375 -123.460938 347.910156 -100.039062 336.984375 -78.75 C 326.054688 -57.46875 311.082031 -39.875 292.0625 -25.96875 Z M 306.546875 -149.015625 C 306.546875 -169.734375 301.71875 -188.25 292.0625 -204.5625 C 282.414062 -220.882812 269.078125 -233.800781 252.046875 -243.3125 C 235.015625 -252.820312 215.570312 -257.578125 193.71875 -257.578125 C 171.289062 -257.578125 151.632812 -252.820312 134.75 -243.3125 C 117.863281 -233.800781 104.664062 -220.882812 95.15625 -204.5625 C 85.644531 -188.25 80.890625 -169.734375 80.890625 -149.015625 C 80.890625 -128.296875 85.644531 -109.773438 95.15625 -93.453125 C 104.664062 -77.128906 117.863281 -64.210938 134.75 -54.703125 C 151.632812 -45.203125 171.289062 -40.453125 193.71875 -40.453125 C 203.9375 -40.453125 213.726562 -41.585938 223.09375 -43.859375 L 179.234375 -100.90625 C 179.523438 -100.90625 181.515625 -102.109375 185.203125 -104.515625 C 188.890625 -106.929688 193.21875 -109.628906 198.1875 -112.609375 C 203.15625 -115.585938 207.550781 -118.28125 211.375 -120.6875 C 215.207031 -123.101562 217.125 -124.3125 217.125 -124.3125 L 264.390625 -62.578125 C 277.441406 -72.234375 287.726562 -84.582031 295.25 -99.625 C 302.78125 -114.664062 306.546875 -131.128906 306.546875 -149.015625 Z M 306.546875 -149.015625 "/></g></g></g><g fill="#4b206f" fill-opacity="1"><g transform="translate(532.912129, 549.416135)"><g><path d="M 315.484375 -298.453125 L 315.484375 -125.59375 C 315.484375 -100.90625 309.875 -78.910156 298.65625 -59.609375 C 287.445312 -40.304688 271.90625 -25.117188 252.03125 -14.046875 C 232.164062 -2.984375 209.320312 2.546875 183.5 2.546875 C 157.382812 2.546875 134.460938 -2.984375 114.734375 -14.046875 C 95.015625 -25.117188 79.546875 -40.304688 68.328125 -59.609375 C 57.117188 -78.910156 51.515625 -100.90625 51.515625 -125.59375 L 51.515625 -298.453125 L 97.5 -298.453125 L 97.5 -128.578125 C 97.5 -111.828125 101.398438 -96.921875 109.203125 -83.859375 C 117.003906 -70.804688 127.429688 -60.519531 140.484375 -53 C 153.546875 -45.476562 167.882812 -41.71875 183.5 -41.71875 C 199.675781 -41.71875 214.429688 -45.476562 227.765625 -53 C 241.109375 -60.519531 251.753906 -70.804688 259.703125 -83.859375 C 267.648438 -96.921875 271.625 -111.828125 271.625 -128.578125 L 271.625 -298.453125 Z M 315.484375 -298.453125 "/></g></g></g><g fill="#4b206f" fill-opacity="1"><g transform="translate(899.871984, 549.416135)"><g><path d="M 275.890625 0 L 245.234375 -72.375 L 100.484375 -72.375 L 69.390625 0 L 22.140625 0 L 149.4375 -298.03125 L 199.25 -298.03125 L 325.703125 0 Z M 149.859375 -188.1875 L 119.203125 -116.65625 L 226.5 -116.65625 L 195 -189.890625 C 191.300781 -199.253906 187.609375 -208.832031 183.921875 -218.625 C 180.234375 -228.414062 176.546875 -238.5625 172.859375 -249.0625 C 168.878906 -238.28125 165.046875 -227.78125 161.359375 -217.5625 C 157.671875 -207.34375 153.835938 -197.550781 149.859375 -188.1875 Z M 149.859375 -188.1875 "/></g></g></g><g fill="#4b206f" fill-opacity="1"><g transform="translate(1247.675065, 549.416135)"><g><path d="M 291.640625 -298.03125 L 337.625 -298.03125 L 337.625 0 L 293.765625 0 L 94.515625 -230.328125 C 96.222656 -212.734375 97.925781 -195.066406 99.625 -177.328125 C 101.332031 -159.585938 102.1875 -141.773438 102.1875 -123.890625 L 102.1875 0 L 56.203125 0 L 56.203125 -298.03125 L 99.203125 -298.03125 L 298.453125 -62.15625 C 296.460938 -76.0625 294.96875 -90.960938 293.96875 -106.859375 C 292.976562 -122.753906 292.34375 -138.71875 292.0625 -154.75 C 291.78125 -170.789062 291.640625 -185.910156 291.640625 -200.109375 Z M 291.640625 -298.03125 "/></g></g></g><g fill="#4b206f" fill-opacity="1"><g transform="translate(1641.028717, 549.416135)"><g><path d="M 121.34375 0 L 121.34375 -253.75 L 25.96875 -253.75 L 25.96875 -298.03125 L 265.25 -298.03125 L 265.25 -253.75 L 167.3125 -253.75 L 167.3125 0 Z M 121.34375 0 "/></g></g></g><g fill="#4b206f" fill-opacity="1"><g transform="translate(1932.21262, 549.416135)"><g><path d="M 315.484375 -298.453125 L 315.484375 -125.59375 C 315.484375 -100.90625 309.875 -78.910156 298.65625 -59.609375 C 287.445312 -40.304688 271.90625 -25.117188 252.03125 -14.046875 C 232.164062 -2.984375 209.320312 2.546875 183.5 2.546875 C 157.382812 2.546875 134.460938 -2.984375 114.734375 -14.046875 C 95.015625 -25.117188 79.546875 -40.304688 68.328125 -59.609375 C 57.117188 -78.910156 51.515625 -100.90625 51.515625 -125.59375 L 51.515625 -298.453125 L 97.5 -298.453125 L 97.5 -128.578125 C 97.5 -111.828125 101.398438 -96.921875 109.203125 -83.859375 C 117.003906 -70.804688 127.429688 -60.519531 140.484375 -53 C 153.546875 -45.476562 167.882812 -41.71875 183.5 -41.71875 C 199.675781 -41.71875 214.429688 -45.476562 227.765625 -53 C 241.109375 -60.519531 251.753906 -70.804688 259.703125 -83.859375 C 267.648438 -96.921875 271.625 -111.828125 271.625 -128.578125 L 271.625 -298.453125 Z M 315.484375 -298.453125 "/></g></g></g><g fill="#4b206f" fill-opacity="1"><g transform="translate(2299.172475, 549.416135)"><g><path d="M 101.328125 -298.03125 L 210.75 -138.796875 L 321.4375 -298.03125 L 364.875 -298.03125 L 364.875 0 L 318.890625 0 L 318.890625 -123.890625 C 318.890625 -142.054688 319.242188 -159.300781 319.953125 -175.625 C 320.660156 -191.945312 321.863281 -208.195312 323.5625 -224.375 L 223.9375 -85.578125 L 195.84375 -85.578125 L 97.5 -223.9375 C 99.195312 -207.757812 100.398438 -191.582031 101.109375 -175.40625 C 101.828125 -159.226562 102.1875 -142.054688 102.1875 -123.890625 L 102.1875 0 L 56.203125 0 L 56.203125 -298.03125 Z M 101.328125 -298.03125 "/></g></g></g><g fill="#4b206f" fill-opacity="1"><g transform="translate(2813.400205, 802.978235)"><g><path d="M 305.6875 -39.59375 C 298.875 -32.78125 289.578125 -26.035156 277.796875 -19.359375 C 266.023438 -12.691406 252.472656 -7.085938 237.140625 -2.546875 C 221.816406 1.984375 205.5 4.25 188.1875 4.25 C 166.613281 4.25 146.457031 0.632812 127.71875 -6.59375 C 108.988281 -13.832031 92.597656 -24.117188 78.546875 -37.453125 C 64.492188 -50.796875 53.566406 -66.90625 45.765625 -85.78125 C 37.960938 -104.65625 34.0625 -125.734375 34.0625 -149.015625 C 34.0625 -170.867188 38.175781 -191.019531 46.40625 -209.46875 C 54.632812 -227.914062 66.054688 -243.953125 80.671875 -257.578125 C 95.296875 -271.203125 111.972656 -281.773438 130.703125 -289.296875 C 149.441406 -296.816406 169.3125 -300.578125 190.3125 -300.578125 C 207.90625 -300.578125 224.4375 -298.09375 239.90625 -293.125 C 255.375 -288.15625 269.140625 -281.835938 281.203125 -274.171875 C 293.265625 -266.515625 302.847656 -258.429688 309.953125 -249.921875 L 280.5625 -215 C 268.082031 -226.632812 254.25 -236.210938 239.0625 -243.734375 C 223.875 -251.265625 207.054688 -255.03125 188.609375 -255.03125 C 170.441406 -255.03125 153.125 -250.769531 136.65625 -242.25 C 120.195312 -233.738281 106.785156 -221.535156 96.421875 -205.640625 C 86.066406 -189.742188 80.890625 -170.867188 80.890625 -149.015625 C 80.890625 -125.171875 86.210938 -105.300781 96.859375 -89.40625 C 107.503906 -73.507812 121.410156 -61.515625 138.578125 -53.421875 C 155.753906 -45.335938 174.273438 -41.296875 194.140625 -41.296875 C 214.296875 -41.296875 231.75 -45.195312 246.5 -53 C 261.257812 -60.8125 273.46875 -68.972656 283.125 -77.484375 Z M 305.6875 -39.59375 "/></g></g></g><g fill="#4b206f" fill-opacity="1"><g transform="translate(3153.966275, 802.978235)"><g><path d="M 275.890625 0 L 245.234375 -72.375 L 100.484375 -72.375 L 69.390625 0 L 22.140625 0 L 149.4375 -298.03125 L 199.25 -298.03125 L 325.703125 0 Z M 149.859375 -188.1875 L 119.203125 -116.65625 L 226.5 -116.65625 L 195 -189.890625 C 191.300781 -199.253906 187.609375 -208.832031 183.921875 -218.625 C 180.234375 -228.414062 176.546875 -238.5625 172.859375 -249.0625 C 168.878906 -238.28125 165.046875 -227.78125 161.359375 -217.5625 C 157.671875 -207.34375 153.835938 -197.550781 149.859375 -188.1875 Z M 149.859375 -188.1875 "/></g></g></g><g fill="#4b206f" fill-opacity="1"><g transform="translate(3501.769356, 802.978235)"><g><path d="M 198.40625 -298.03125 C 214.863281 -298.03125 230.046875 -293.984375 243.953125 -285.890625 C 257.859375 -277.796875 269 -266.863281 277.375 -253.09375 C 285.75 -239.332031 289.9375 -223.796875 289.9375 -206.484375 C 289.9375 -188.890625 285.609375 -172.992188 276.953125 -158.796875 C 268.296875 -144.609375 256.800781 -133.328125 242.46875 -124.953125 C 228.132812 -116.578125 212.3125 -112.390625 195 -112.390625 L 102.1875 -112.390625 L 102.1875 0 L 56.203125 0 L 56.203125 -298.03125 Z M 192.859375 -156.671875 C 201.660156 -156.671875 209.820312 -158.941406 217.34375 -163.484375 C 224.863281 -168.023438 230.894531 -174.054688 235.4375 -181.578125 C 239.976562 -189.097656 242.25 -197.398438 242.25 -206.484375 C 242.25 -215.285156 239.976562 -223.234375 235.4375 -230.328125 C 230.894531 -237.421875 224.863281 -243.097656 217.34375 -247.359375 C 209.820312 -251.617188 201.660156 -253.75 192.859375 -253.75 L 102.1875 -253.75 L 102.1875 -156.671875 Z M 192.859375 -156.671875 "/></g></g></g><g fill="#4b206f" fill-opacity="1"><g transform="translate(3826.158408, 802.978235)"><g><path d="M 216.703125 0 L 50.671875 0 L 50.671875 -43.859375 L 110.6875 -43.859375 L 110.6875 -254.171875 L 50.671875 -254.171875 L 50.671875 -298.03125 L 216.703125 -298.03125 L 216.703125 -254.171875 L 156.671875 -254.171875 L 156.671875 -43.859375 L 216.703125 -43.859375 Z M 216.703125 0 "/></g></g></g><g fill="#4b206f" fill-opacity="1"><g transform="translate(4093.502622, 802.978235)"><g><path d="M 121.34375 0 L 121.34375 -253.75 L 25.96875 -253.75 L 25.96875 -298.03125 L 265.25 -298.03125 L 265.25 -253.75 L 167.3125 -253.75 L 167.3125 0 Z M 121.34375 0 "/></g></g></g><g fill="#4b206f" fill-opacity="1"><g transform="translate(4384.686526, 802.978235)"><g><path d="M 275.890625 0 L 245.234375 -72.375 L 100.484375 -72.375 L 69.390625 0 L 22.140625 0 L 149.4375 -298.03125 L 199.25 -298.03125 L 325.703125 0 Z M 149.859375 -188.1875 L 119.203125 -116.65625 L 226.5 -116.65625 L 195 -189.890625 C 191.300781 -199.253906 187.609375 -208.832031 183.921875 -218.625 C 180.234375 -228.414062 176.546875 -238.5625 172.859375 -249.0625 C 168.878906 -238.28125 165.046875 -227.78125 161.359375 -217.5625 C 157.671875 -207.34375 153.835938 -197.550781 149.859375 -188.1875 Z M 149.859375 -188.1875 "/></g></g></g><g fill="#4b206f" fill-opacity="1"><g transform="translate(4732.489607, 802.978235)"><g><path d="M 265.671875 -44.28125 L 265.671875 0 L 56.203125 0 L 56.203125 -298.03125 L 102.1875 -298.03125 L 102.1875 -44.28125 Z M 265.671875 -44.28125 "/></g></g></g></svg>